<?xml version="1.0" encoding="UTF-8" standalone="no"?><svg xmlns="http://www.w3.org/2000/svg" xmlns:xlink="http://www.w3.org/1999/xlink" clip-rule="evenodd" stroke-miterlimit="4.00" viewBox="0 0 1024 768"><desc>SVG generated by Keynote</desc><defs></defs><g transform="matrix(1.00, 0.00, -0.00, -1.00, 0.0, 768.0)"><path d="M 0.0 768.0 L 1024.0 768.0 L 1024.0 0.0 L 0.0 0.0 Z M 0.0 768.0 " fill="#FEFFFF"></path><text xml:space="preserve" font-family="DIN2014-Regular" font-size="21.6" fill="#000000" transform="matrix(1.00, 0.00, -0.00, -1.00, 304.0, 489.0)">M</text><text xml:space="preserve" font-family="DIN2014-Regular" font-size="21.6" fill="#000000" transform="matrix(1.00, 0.00, -0.00, -1.00, 322.7, 489.0)">A</text><text xml:space="preserve" font-family="DIN2014-Regular" font-size="21.6" fill="#000000" transform="matrix(1.00, 0.00, -0.00, -1.00, 337.6, 489.0)">D</text><text xml:space="preserve" font-family="DIN2014-Regular" font-size="21.6" fill="#000000" transform="matrix(1.00, 0.00, -0.00, -1.00, 353.1, 489.0)">E</text><text xml:space="preserve" font-family="DIN2014-Regular" font-size="27.0" fill="#000000" transform="matrix(1.00, 0.00, -0.00, -1.00, 367.2, 489.0)"> </text><text xml:space="preserve" font-family="DIN2014-Regular" font-size="21.6" fill="#000000" transform="matrix(1.00, 0.00, -0.00, -1.00, 376.4, 489.0)">O</text><text xml:space="preserve" font-family="DIN2014-Regular" font-size="21.6" fill="#000000" transform="matrix(1.00, 0.00, -0.00, -1.00, 391.8, 489.0)">F</text><text xml:space="preserve" font-family="DIN2014-Regular" font-size="27.0" fill="#000000" transform="matrix(1.00, 0.00, -0.00, -1.00, 405.7, 489.0)"> </text><text xml:space="preserve" font-family="DIN2014-Regular" font-size="21.6" fill="#000000" transform="matrix(1.00, 0.00, -0.00, -1.00, 414.9, 489.0)">B</text><text xml:space="preserve" font-family="DIN2014-Regular" font-size="21.6" fill="#000000" transform="matrix(1.00, 0.00, -0.00, -1.00, 430.2, 489.0)">A</text><text xml:space="preserve" font-family="DIN2014-Regular" font-size="21.6" fill="#000000" transform="matrix(1.00, 0.00, -0.00, -1.00, 445.2, 489.0)">S</text><text xml:space="preserve" font-family="DIN2014-Regular" font-size="21.6" fill="#000000" transform="matrix(1.00, 0.00, -0.00, -1.00, 459.9, 489.0)">I</text><text xml:space="preserve" font-family="DIN2014-Regular" font-size="21.6" fill="#000000" transform="matrix(1.00, 0.00, -0.00, -1.00, 468.3, 489.0)">C</text><text xml:space="preserve" font-family="DIN2014-Regular" font-size="27.0" fill="#000000" transform="matrix(1.00, 0.00, -0.00, -1.00, 483.2, 489.0)"> </text><text xml:space="preserve" font-family="DIN2014-Regular" font-size="21.6" fill="#000000" transform="matrix(1.00, 0.00, -0.00, -1.00, 492.4, 489.0)">G</text><text xml:space="preserve" font-family="DIN2014-Regular" font-size="21.6" fill="#000000" transform="matrix(1.00, 0.00, -0.00, -1.00, 507.9, 489.0)">E</text><text xml:space="preserve" font-family="DIN2014-Regular" font-size="21.6" fill="#000000" transform="matrix(1.00, 0.00, -0.00, -1.00, 522.0, 489.0)">O</text><text xml:space="preserve" font-family="DIN2014-Regular" font-size="21.6" fill="#000000" transform="matrix(1.00, 0.00, -0.00, -1.00, 537.4, 489.0)">M</text><text xml:space="preserve" font-family="DIN2014-Regular" font-size="21.6" fill="#000000" transform="matrix(1.00, 0.00, -0.00, -1.00, 556.1, 489.0)">E</text><text xml:space="preserve" font-family="DIN2014-Regular" font-size="21.6" fill="#000000" transform="matrix(1.00, 0.00, -0.00, -1.00, 570.2, 489.0)">T</text><text xml:space="preserve" font-family="DIN2014-Regular" font-size="21.6" fill="#000000" transform="matrix(1.00, 0.00, -0.00, -1.00, 583.8, 489.0)">R</text><text xml:space="preserve" font-family="DIN2014-Regular" font-size="21.6" fill="#000000" transform="matrix(1.00, 0.00, -0.00, -1.00, 599.2, 489.0)">I</text><text xml:space="preserve" font-family="DIN2014-Regular" font-size="21.6" fill="#000000" transform="matrix(1.00, 0.00, -0.00, -1.00, 607.6, 489.0)">C</text><text xml:space="preserve" font-family="DIN2014-Regular" font-size="27.0" fill="#000000" transform="matrix(1.00, 0.00, -0.00, -1.00, 622.5, 489.0)"> </text><text xml:space="preserve" font-family="DIN2014-Regular" font-size="21.6" fill="#000000" transform="matrix(1.00, 0.00, -0.00, -1.00, 631.7, 489.0)">S</text><text xml:space="preserve" font-family="DIN2014-Regular" font-size="21.6" fill="#000000" transform="matrix(1.00, 0.00, -0.00, -1.00, 646.5, 489.0)">H</text><text xml:space="preserve" font-family="DIN2014-Regular" font-size="21.6" fill="#000000" transform="matrix(1.00, 0.00, -0.00, -1.00, 662.7, 489.0)">A</text><text xml:space="preserve" font-family="DIN2014-Regular" font-size="21.6" fill="#000000" transform="matrix(1.00, 0.00, -0.00, -1.00, 677.6, 489.0)">P</text><text xml:space="preserve" font-family="DIN2014-Regular" font-size="21.6" fill="#000000" transform="matrix(1.00, 0.00, -0.00, -1.00, 692.8, 489.0)">E</text><text xml:space="preserve" font-family="DIN2014-Regular" font-size="21.6" fill="#000000" transform="matrix(1.00, 0.00, -0.00, -1.00, 706.9, 489.0)">S</text><text xml:space="preserve" font-family="DIN2014-Regular" font-size="27.0" fill="#000000" transform="matrix(1.00, 0.00, -0.00, -1.00, 721.7, 489.0)"> </text><text xml:space="preserve" font-family="DIN2014-Regular" font-size="21.6" fill="#000000" transform="matrix(1.00, 0.00, -0.00, -1.00, 215.0, 419.0)">T</text><text xml:space="preserve" font-family="DIN2014-Regular" font-size="21.6" fill="#000000" transform="matrix(1.00, 0.00, -0.00, -1.00, 228.6, 419.0)">H</text><text xml:space="preserve" font-family="DIN2014-Regular" font-size="21.6" fill="#000000" transform="matrix(1.00, 0.00, -0.00, -1.00, 244.8, 419.0)">E</text><text xml:space="preserve" font-family="DIN2014-Regular" font-size="27.0" fill="#000000" transform="matrix(1.00, 0.00, -0.00, -1.00, 258.9, 419.0)"> </text><text xml:space="preserve" font-family="DIN2014-Regular" font-size="21.6" fill="#000000" transform="matrix(1.00, 0.00, -0.00, -1.00, 268.1, 419.0)">S</text><text xml:space="preserve" font-family="DIN2014-Regular" font-size="21.6" fill="#000000" transform="matrix(1.00, 0.00, -0.00, -1.00, 282.8, 419.0)">Q</text><text xml:space="preserve" font-family="DIN2014-Regular" font-size="21.6" fill="#000000" transform="matrix(1.00, 0.00, -0.00, -1.00, 298.2, 419.0)">U</text><text xml:space="preserve" font-family="DIN2014-Regular" font-size="21.6" fill="#000000" transform="matrix(1.00, 0.00, -0.00, -1.00, 314.9, 419.0)">A</text><text xml:space="preserve" font-family="DIN2014-Regular" font-size="21.6" fill="#000000" transform="matrix(1.00, 0.00, -0.00, -1.00, 329.9, 419.0)">R</text><text xml:space="preserve" font-family="DIN2014-Regular" font-size="21.6" fill="#000000" transform="matrix(1.00, 0.00, -0.00, -1.00, 345.4, 419.0)">E</text><text xml:space="preserve" font-family="DIN2014-Regular" font-size="27.0" fill="#000000" transform="matrix(1.00, 0.00, -0.00, -1.00, 359.5, 419.0)">,</text><text xml:space="preserve" font-family="DIN2014-Regular" font-size="27.0" fill="#000000" transform="matrix(1.00, 0.00, -0.00, -1.00, 367.7, 419.0)"> </text><text xml:space="preserve" font-family="DIN2014-Regular" font-size="21.6" fill="#000000" transform="matrix(1.00, 0.00, -0.00, -1.00, 376.9, 419.0)">T</text><text xml:space="preserve" font-family="DIN2014-Regular" font-size="21.6" fill="#000000" transform="matrix(1.00, 0.00, -0.00, -1.00, 390.5, 419.0)">H</text><text xml:space="preserve" font-family="DIN2014-Regular" font-size="21.6" fill="#000000" transform="matrix(1.00, 0.00, -0.00, -1.00, 406.7, 419.0)">E</text><text xml:space="preserve" font-family="DIN2014-Regular" font-size="27.0" fill="#000000" transform="matrix(1.00, 0.00, -0.00, -1.00, 420.8, 419.0)"> </text><text xml:space="preserve" font-family="DIN2014-Regular" font-size="21.6" fill="#000000" transform="matrix(1.00, 0.00, -0.00, -1.00, 430.0, 419.0)">T</text><text xml:space="preserve" font-family="DIN2014-Regular" font-size="21.6" fill="#000000" transform="matrix(1.00, 0.00, -0.00, -1.00, 443.6, 419.0)">R</text><text xml:space="preserve" font-family="DIN2014-Regular" font-size="21.6" fill="#000000" transform="matrix(1.00, 0.00, -0.00, -1.00, 459.0, 419.0)">I</text><text xml:space="preserve" font-family="DIN2014-Regular" font-size="21.6" fill="#000000" transform="matrix(1.00, 0.00, -0.00, -1.00, 467.4, 419.0)">A</text><text xml:space="preserve" font-family="DIN2014-Regular" font-size="21.6" fill="#000000" transform="matrix(1.00, 0.00, -0.00, -1.00, 482.4, 419.0)">N</text><text xml:space="preserve" font-family="DIN2014-Regular" font-size="21.6" fill="#000000" transform="matrix(1.00, 0.00, -0.00, -1.00, 498.6, 419.0)">G</text><text xml:space="preserve" font-family="DIN2014-Regular" font-size="21.6" fill="#000000" transform="matrix(1.00, 0.00, -0.00, -1.00, 514.1, 419.0)">L</text><text xml:space="preserve" font-family="DIN2014-Regular" font-size="21.6" fill="#000000" transform="matrix(1.00, 0.00, -0.00, -1.00, 527.3, 419.0)">E</text><text xml:space="preserve" font-family="DIN2014-Regular" font-size="27.0" fill="#000000" transform="matrix(1.00, 0.00, -0.00, -1.00, 541.5, 419.0)">,</text><text xml:space="preserve" font-family="DIN2014-Regular" font-size="27.0" fill="#000000" transform="matrix(1.00, 0.00, -0.00, -1.00, 549.7, 419.0)"> </text><text xml:space="preserve" font-family="DIN2014-Regular" font-size="21.6" fill="#000000" transform="matrix(1.00, 0.00, -0.00, -1.00, 558.9, 419.0)">A</text><text xml:space="preserve" font-family="DIN2014-Regular" font-size="21.6" fill="#000000" transform="matrix(1.00, 0.00, -0.00, -1.00, 573.9, 419.0)">N</text><text xml:space="preserve" font-family="DIN2014-Regular" font-size="21.6" fill="#000000" transform="matrix(1.00, 0.00, -0.00, -1.00, 590.1, 419.0)">D</text><text xml:space="preserve" font-family="DIN2014-Regular" font-size="27.0" fill="#000000" transform="matrix(1.00, 0.00, -0.00, -1.00, 605.6, 419.0)"> </text><text xml:space="preserve" font-family="DIN2014-Regular" font-size="21.6" fill="#000000" transform="matrix(1.00, 0.00, -0.00, -1.00, 614.7, 419.0)">Q</text><text xml:space="preserve" font-family="DIN2014-Regular" font-size="21.6" fill="#000000" transform="matrix(1.00, 0.00, -0.00, -1.00, 630.1, 419.0)">U</text><text xml:space="preserve" font-family="DIN2014-Regular" font-size="21.6" fill="#000000" transform="matrix(1.00, 0.00, -0.00, -1.00, 646.8, 419.0)">A</text><text xml:space="preserve" font-family="DIN2014-Regular" font-size="21.6" fill="#000000" transform="matrix(1.00, 0.00, -0.00, -1.00, 661.8, 419.0)">R</text><text xml:space="preserve" font-family="DIN2014-Regular" font-size="21.6" fill="#000000" transform="matrix(1.00, 0.00, -0.00, -1.00, 677.0, 419.0)">T</text><text xml:space="preserve" font-family="DIN2014-Regular" font-size="21.6" fill="#000000" transform="matrix(1.00, 0.00, -0.00, -1.00, 690.6, 419.0)">E</text><text xml:space="preserve" font-family="DIN2014-Regular" font-size="21.6" fill="#000000" transform="matrix(1.00, 0.00, -0.00, -1.00, 704.7, 419.0)">R</text><text xml:space="preserve" font-family="DIN2014-Regular" font-size="27.0" fill="#000000" transform="matrix(1.00, 0.00, -0.00, -1.00, 720.2, 419.0)"> </text><text xml:space="preserve" font-family="DIN2014-Regular" font-size="21.6" fill="#000000" transform="matrix(1.00, 0.00, -0.00, -1.00, 729.4, 419.0)">C</text><text xml:space="preserve" font-family="DIN2014-Regular" font-size="21.6" fill="#000000" transform="matrix(1.00, 0.00, -0.00, -1.00, 744.3, 419.0)">I</text><text xml:space="preserve" font-family="DIN2014-Regular" font-size="21.6" fill="#000000" transform="matrix(1.00, 0.00, -0.00, -1.00, 752.7, 419.0)">R</text><text xml:space="preserve" font-family="DIN2014-Regular" font-size="21.6" fill="#000000" transform="matrix(1.00, 0.00, -0.00, -1.00, 768.2, 419.0)">C</text><text xml:space="preserve" font-family="DIN2014-Regular" font-size="21.6" fill="#000000" transform="matrix(1.00, 0.00, -0.00, -1.00, 783.1, 419.0)">L</text><text xml:space="preserve" font-family="DIN2014-Regular" font-size="21.6" fill="#000000" transform="matrix(1.00, 0.00, -0.00, -1.00, 796.3, 419.0)">E</text><image xlink:href="7E27D7D74B2DA92C336D6AD660991410.png" width="106.00" height="106.00" transform="matrix(1.00, 0.00, -0.00, -1.00, 216.5, 272.6)" opacity="0.50"></image><g><clipPath id="clip-30"><path d="M 219.5 271.6 L 319.5 271.6 L 319.5 171.6 L 219.5 171.6 Z M 219.5 271.6 "></path></clipPath><g clip-path="url(#clip-30)"><image xlink:href="20C7A5D20B7F4BF774380DF8BD393062.jpeg" width="300.00" height="300.00" transform="matrix(1.00, 0.00, -0.00, -1.00, 219.5, 271.6)"></image><path d="M 219.5 271.6 L 319.5 271.6 L 319.5 171.6 L 219.5 171.6 Z M 219.5 271.6 " fill="#000000" fill-opacity="0.50"></path></g></g><image xlink:href="EA3800CC99988DBF6A553D97BBDE0AB6.png" width="106.00" height="106.00" transform="matrix(1.00, 0.00, -0.00, -1.00, 701.5, 272.6)" opacity="0.50"></image><g><clipPath id="clip-31"><path d="M 789.8 256.9 C 809.4 237.4 809.4 205.7 789.8 186.2 C 770.3 166.7 738.7 166.7 719.1 186.2 C 699.6 205.7 699.6 237.4 719.1 256.9 C 738.7 276.4 770.3 276.4 789.8 256.9 Z M 789.8 256.9 "></path></clipPath><g clip-path="url(#clip-31)"><image xlink:href="../../3FF789C2-FFDF-46F8-BFAD-667965EC276E/assets/20C7A5D20B7F4BF774380DF8BD393062.jpeg" width="300.00" height="300.00" transform="matrix(1.00, 0.00, -0.00, -1.00, 704.5, 271.6)"></image><path d="M 704.5 271.6 L 804.5 271.6 L 804.5 171.6 L 704.5 171.6 Z M 704.5 271.6 " fill="#000000" fill-opacity="0.50"></path></g></g><image xlink:href="7F68E4F361647783939C428D42072155.png" width="106.00" height="106.00" transform="matrix(1.00, 0.00, -0.00, -1.00, 459.0, 272.6)" opacity="0.50"></image><g><clipPath id="clip-32"><path d="M 462.0 271.6 L 462.0 171.6 L 562.0 171.6 Z M 462.0 271.6 "></path></clipPath><g clip-path="url(#clip-32)"><image xlink:href="../../3FF789C2-FFDF-46F8-BFAD-667965EC276E/assets/20C7A5D20B7F4BF774380DF8BD393062.jpeg" width="300.00" height="300.00" transform="matrix(1.00, 0.00, -0.00, -1.00, 462.0, 271.6)"></image><path d="M 462.0 271.6 L 562.0 271.6 L 562.0 171.6 L 462.0 171.6 Z M 462.0 271.6 " fill="#000000" fill-opacity="0.50"></path></g></g></g></svg>