<?xml version="1.0" encoding="UTF-8" standalone="no"?><svg xmlns="http://www.w3.org/2000/svg" xmlns:xlink="http://www.w3.org/1999/xlink" clip-rule="evenodd" stroke-miterlimit="4.00" viewBox="0 0 1024 768"><desc>SVG generated by Keynote</desc><defs></defs><g transform="matrix(1.00, 0.00, -0.00, -1.00, 0.0, 768.0)"><path d="M 0.0 768.0 L 1024.0 768.0 L 1024.0 0.0 L 0.0 0.0 Z M 0.0 768.0 " fill="#FEFFFF"></path><text xml:space="preserve" font-family="MrsEavesOT-Bold" font-weight="bold" font-size="32.0" fill="#000000" transform="matrix(1.00, 0.00, -0.00, -1.00, 189.0, 394.0)">R</text><text xml:space="preserve" font-family="MrsEavesOT-Bold" font-weight="bold" font-size="32.0" fill="#000000" transform="matrix(1.00, 0.00, -0.00, -1.00, 214.7, 394.0)">E</text><text xml:space="preserve" font-family="MrsEavesOT-Bold" font-weight="bold" font-size="32.0" fill="#000000" transform="matrix(1.00, 0.00, -0.00, -1.00, 238.6, 394.0)">G</text><text xml:space="preserve" font-family="MrsEavesOT-Bold" font-weight="bold" font-size="32.0" fill="#000000" transform="matrix(1.00, 0.00, -0.00, -1.00, 266.1, 394.0)">A</text><text xml:space="preserve" font-family="MrsEavesOT-Bold" font-weight="bold" font-size="32.0" fill="#000000" transform="matrix(1.00, 0.00, -0.00, -1.00, 290.1, 394.0)">R</text><text xml:space="preserve" font-family="MrsEavesOT-Bold" font-weight="bold" font-size="32.0" fill="#000000" transform="matrix(1.00, 0.00, -0.00, -1.00, 315.8, 394.0)">D</text><text xml:space="preserve" font-family="MrsEavesOT-Bold" font-weight="bold" font-size="32.0" fill="#000000" transform="matrix(1.00, 0.00, -0.00, -1.00, 343.5, 394.0)">I</text><text xml:space="preserve" font-family="MrsEavesOT-Bold" font-weight="bold" font-size="32.0" fill="#000000" transform="matrix(1.00, 0.00, -0.00, -1.00, 360.1, 394.0)">N</text><text xml:space="preserve" font-family="MrsEavesOT-Bold" font-weight="bold" font-size="32.0" fill="#000000" transform="matrix(1.00, 0.00, -0.00, -1.00, 387.2, 394.0)">G</text><text xml:space="preserve" font-family="MrsEavesOT-Bold" font-weight="bold" font-size="40.0" fill="#000000" transform="matrix(1.00, 0.00, -0.00, -1.00, 414.8, 394.0)"> </text><text xml:space="preserve" font-family="MrsEavesOT-Bold" font-weight="bold" font-size="40.0" fill="#000000" transform="matrix(1.00, 0.00, -0.00, -1.00, 428.1, 394.0)">“</text><text xml:space="preserve" font-family="MrsEavesOT-Bold" font-weight="bold" font-size="32.0" fill="#000000" transform="matrix(1.00, 0.00, -0.00, -1.00, 449.4, 394.0)">S</text><text xml:space="preserve" font-family="MrsEavesOT-Bold" font-weight="bold" font-size="32.0" fill="#000000" transform="matrix(1.00, 0.00, -0.00, -1.00, 470.0, 394.0)">T</text><text xml:space="preserve" font-family="MrsEavesOT-Bold" font-weight="bold" font-size="32.0" fill="#000000" transform="matrix(1.00, 0.00, -0.00, -1.00, 494.6, 394.0)">E</text><text xml:space="preserve" font-family="MrsEavesOT-Bold" font-weight="bold" font-size="32.0" fill="#000000" transform="matrix(1.00, 0.00, -0.00, -1.00, 519.1, 394.0)">N</text><text xml:space="preserve" font-family="MrsEavesOT-Bold" font-weight="bold" font-size="32.0" fill="#000000" transform="matrix(1.00, 0.00, -0.00, -1.00, 546.4, 394.0)">C</text><text xml:space="preserve" font-family="MrsEavesOT-Bold" font-weight="bold" font-size="32.0" fill="#000000" transform="matrix(1.00, 0.00, -0.00, -1.00, 572.6, 394.0)">I</text><text xml:space="preserve" font-family="MrsEavesOT-Bold" font-weight="bold" font-size="32.0" fill="#000000" transform="matrix(1.00, 0.00, -0.00, -1.00, 589.1, 394.0)">L</text><text xml:space="preserve" font-family="MrsEavesOT-Bold" font-weight="bold" font-size="40.0" fill="#000000" transform="matrix(1.00, 0.00, -0.00, -1.00, 613.4, 394.0)"> </text><text xml:space="preserve" font-family="MrsEavesOT-Bold" font-weight="bold" font-size="32.0" fill="#000000" transform="matrix(1.00, 0.00, -0.00, -1.00, 626.7, 394.0)">T</text><text xml:space="preserve" font-family="MrsEavesOT-Bold" font-weight="bold" font-size="32.0" fill="#000000" transform="matrix(1.00, 0.00, -0.00, -1.00, 651.5, 394.0)">Y</text><text xml:space="preserve" font-family="MrsEavesOT-Bold" font-weight="bold" font-size="32.0" fill="#000000" transform="matrix(1.00, 0.00, -0.00, -1.00, 675.8, 394.0)">P</text><text xml:space="preserve" font-family="MrsEavesOT-Bold" font-weight="bold" font-size="32.0" fill="#000000" transform="matrix(1.00, 0.00, -0.00, -1.00, 698.3, 394.0)">E</text><text xml:space="preserve" font-family="MrsEavesOT-Bold" font-weight="bold" font-size="32.0" fill="#000000" transform="matrix(1.00, 0.00, -0.00, -1.00, 722.9, 394.0)">F</text><text xml:space="preserve" font-family="MrsEavesOT-Bold" font-weight="bold" font-size="32.0" fill="#000000" transform="matrix(1.00, 0.00, -0.00, -1.00, 743.7, 394.0)">A</text><text xml:space="preserve" font-family="MrsEavesOT-Bold" font-weight="bold" font-size="32.0" fill="#000000" transform="matrix(1.00, 0.00, -0.00, -1.00, 766.9, 394.0)">C</text><text xml:space="preserve" font-family="MrsEavesOT-Bold" font-weight="bold" font-size="32.0" fill="#000000" transform="matrix(1.00, 0.00, -0.00, -1.00, 793.0, 394.0)">E</text><text xml:space="preserve" font-family="MrsEavesOT-Bold" font-weight="bold" font-size="40.0" fill="#000000" transform="matrix(1.00, 0.00, -0.00, -1.00, 817.5, 394.0)">”</text></g></svg>