<?xml version="1.0" encoding="UTF-8" standalone="no"?><svg xmlns="http://www.w3.org/2000/svg" xmlns:xlink="http://www.w3.org/1999/xlink" clip-rule="evenodd" stroke-miterlimit="4.00" viewBox="0 0 1024 768"><desc>SVG generated by Keynote</desc><defs></defs><g transform="matrix(1.00, 0.00, -0.00, -1.00, 0.0, 768.0)"><path d="M 0.0 768.0 L 1024.0 768.0 L 1024.0 0.0 L 0.0 0.0 Z M 0.0 768.0 " fill="#FEFFFF"></path><text xml:space="preserve" font-family="DIN2014-Regular" font-size="21.6" fill="#000000" transform="matrix(1.00, 0.00, -0.00, -1.00, 254.0, 410.0)">T</text><text xml:space="preserve" font-family="DIN2014-Regular" font-size="21.6" fill="#000000" transform="matrix(1.00, 0.00, -0.00, -1.00, 267.6, 410.0)">Y</text><text xml:space="preserve" font-family="DIN2014-Regular" font-size="21.6" fill="#000000" transform="matrix(1.00, 0.00, -0.00, -1.00, 282.0, 410.0)">P</text><text xml:space="preserve" font-family="DIN2014-Regular" font-size="21.6" fill="#000000" transform="matrix(1.00, 0.00, -0.00, -1.00, 297.1, 410.0)">E</text><text xml:space="preserve" font-family="DIN2014-Regular" font-size="21.6" fill="#000000" transform="matrix(1.00, 0.00, -0.00, -1.00, 311.3, 410.0)">F</text><text xml:space="preserve" font-family="DIN2014-Regular" font-size="21.6" fill="#000000" transform="matrix(1.00, 0.00, -0.00, -1.00, 324.5, 410.0)">A</text><text xml:space="preserve" font-family="DIN2014-Regular" font-size="21.6" fill="#000000" transform="matrix(1.00, 0.00, -0.00, -1.00, 339.5, 410.0)">C</text><text xml:space="preserve" font-family="DIN2014-Regular" font-size="21.6" fill="#000000" transform="matrix(1.00, 0.00, -0.00, -1.00, 354.4, 410.0)">E</text><text xml:space="preserve" font-family="DIN2014-Regular" font-size="27.0" fill="#000000" transform="matrix(1.00, 0.00, -0.00, -1.00, 368.5, 410.0)"> </text><text xml:space="preserve" font-family="DIN2014-Regular" font-size="21.6" fill="#000000" transform="matrix(1.00, 0.00, -0.00, -1.00, 377.7, 410.0)">F</text><text xml:space="preserve" font-family="DIN2014-Regular" font-size="21.6" fill="#000000" transform="matrix(1.00, 0.00, -0.00, -1.00, 391.6, 410.0)">O</text><text xml:space="preserve" font-family="DIN2014-Regular" font-size="21.6" fill="#000000" transform="matrix(1.00, 0.00, -0.00, -1.00, 407.0, 410.0)">R</text><text xml:space="preserve" font-family="DIN2014-Regular" font-size="27.0" fill="#000000" transform="matrix(1.00, 0.00, -0.00, -1.00, 422.4, 410.0)"> </text><text xml:space="preserve" font-family="DIN2014-Regular" font-size="21.6" fill="#000000" transform="matrix(1.00, 0.00, -0.00, -1.00, 431.6, 410.0)">A</text><text xml:space="preserve" font-family="DIN2014-Regular" font-size="21.6" fill="#000000" transform="matrix(1.00, 0.00, -0.00, -1.00, 446.6, 410.0)">D</text><text xml:space="preserve" font-family="DIN2014-Regular" font-size="21.6" fill="#000000" transform="matrix(1.00, 0.00, -0.00, -1.00, 461.9, 410.0)">V</text><text xml:space="preserve" font-family="DIN2014-Regular" font-size="21.6" fill="#000000" transform="matrix(1.00, 0.00, -0.00, -1.00, 477.3, 410.0)">E</text><text xml:space="preserve" font-family="DIN2014-Regular" font-size="21.6" fill="#000000" transform="matrix(1.00, 0.00, -0.00, -1.00, 491.4, 410.0)">R</text><text xml:space="preserve" font-family="DIN2014-Regular" font-size="21.6" fill="#000000" transform="matrix(1.00, 0.00, -0.00, -1.00, 506.7, 410.0)">T</text><text xml:space="preserve" font-family="DIN2014-Regular" font-size="21.6" fill="#000000" transform="matrix(1.00, 0.00, -0.00, -1.00, 520.2, 410.0)">I</text><text xml:space="preserve" font-family="DIN2014-Regular" font-size="21.6" fill="#000000" transform="matrix(1.00, 0.00, -0.00, -1.00, 528.6, 410.0)">S</text><text xml:space="preserve" font-family="DIN2014-Regular" font-size="21.6" fill="#000000" transform="matrix(1.00, 0.00, -0.00, -1.00, 543.4, 410.0)">E</text><text xml:space="preserve" font-family="DIN2014-Regular" font-size="21.6" fill="#000000" transform="matrix(1.00, 0.00, -0.00, -1.00, 557.5, 410.0)">M</text><text xml:space="preserve" font-family="DIN2014-Regular" font-size="21.6" fill="#000000" transform="matrix(1.00, 0.00, -0.00, -1.00, 576.2, 410.0)">E</text><text xml:space="preserve" font-family="DIN2014-Regular" font-size="21.6" fill="#000000" transform="matrix(1.00, 0.00, -0.00, -1.00, 590.3, 410.0)">N</text><text xml:space="preserve" font-family="DIN2014-Regular" font-size="21.6" fill="#000000" transform="matrix(1.00, 0.00, -0.00, -1.00, 606.5, 410.0)">T</text><text xml:space="preserve" font-family="DIN2014-Regular" font-size="21.6" fill="#000000" transform="matrix(1.00, 0.00, -0.00, -1.00, 620.1, 410.0)">S</text><text xml:space="preserve" font-family="DIN2014-Regular" font-size="27.0" fill="#000000" transform="matrix(1.00, 0.00, -0.00, -1.00, 634.8, 410.0)"> </text><text xml:space="preserve" font-family="DIN2014-Regular" font-size="27.0" fill="#000000" transform="matrix(1.00, 0.00, -0.00, -1.00, 644.0, 410.0)">+</text><text xml:space="preserve" font-family="DIN2014-Regular" font-size="27.0" fill="#000000" transform="matrix(1.00, 0.00, -0.00, -1.00, 660.0, 410.0)"> </text><text xml:space="preserve" font-family="DIN2014-Regular" font-size="21.6" fill="#000000" transform="matrix(1.00, 0.00, -0.00, -1.00, 669.1, 410.0)">P</text><text xml:space="preserve" font-family="DIN2014-Regular" font-size="21.6" fill="#000000" transform="matrix(1.00, 0.00, -0.00, -1.00, 684.3, 410.0)">O</text><text xml:space="preserve" font-family="DIN2014-Regular" font-size="21.6" fill="#000000" transform="matrix(1.00, 0.00, -0.00, -1.00, 699.7, 410.0)">S</text><text xml:space="preserve" font-family="DIN2014-Regular" font-size="21.6" fill="#000000" transform="matrix(1.00, 0.00, -0.00, -1.00, 714.1, 410.0)">T</text><text xml:space="preserve" font-family="DIN2014-Regular" font-size="21.6" fill="#000000" transform="matrix(1.00, 0.00, -0.00, -1.00, 727.6, 410.0)">E</text><text xml:space="preserve" font-family="DIN2014-Regular" font-size="21.6" fill="#000000" transform="matrix(1.00, 0.00, -0.00, -1.00, 741.8, 410.0)">R</text><text xml:space="preserve" font-family="DIN2014-Regular" font-size="21.6" fill="#000000" transform="matrix(1.00, 0.00, -0.00, -1.00, 757.2, 410.0)">S</text><text xml:space="preserve" font-family="DIN2014-Regular" font-size="27.0" fill="#000000" transform="matrix(1.00, 0.00, -0.00, -1.00, 772.0, 410.0)"> </text><text xml:space="preserve" font-family="DIN2014-Regular" font-size="21.6" fill="#000000" transform="matrix(1.00, 0.00, -0.00, -1.00, 431.0, 375.0)">L</text><text xml:space="preserve" font-family="DIN2014-Regular" font-size="21.6" fill="#000000" transform="matrix(1.00, 0.00, -0.00, -1.00, 444.5, 375.0)">A</text><text xml:space="preserve" font-family="DIN2014-Regular" font-size="21.6" fill="#000000" transform="matrix(1.00, 0.00, -0.00, -1.00, 459.4, 375.0)">R</text><text xml:space="preserve" font-family="DIN2014-Regular" font-size="21.6" fill="#000000" transform="matrix(1.00, 0.00, -0.00, -1.00, 474.9, 375.0)">G</text><text xml:space="preserve" font-family="DIN2014-Regular" font-size="21.6" fill="#000000" transform="matrix(1.00, 0.00, -0.00, -1.00, 490.4, 375.0)">E</text><text xml:space="preserve" font-family="DIN2014-Regular" font-size="21.6" fill="#000000" transform="matrix(1.00, 0.00, -0.00, -1.00, 504.5, 375.0)">R</text><text xml:space="preserve" font-family="DIN2014-Regular" font-size="27.0" fill="#000000" transform="matrix(1.00, 0.00, -0.00, -1.00, 520.0, 375.0)"> </text><text xml:space="preserve" font-family="DIN2014-Regular" font-size="21.6" fill="#000000" transform="matrix(1.00, 0.00, -0.00, -1.00, 529.2, 375.0)">S</text><text xml:space="preserve" font-family="DIN2014-Regular" font-size="21.6" fill="#000000" transform="matrix(1.00, 0.00, -0.00, -1.00, 543.9, 375.0)">I</text><text xml:space="preserve" font-family="DIN2014-Regular" font-size="21.6" fill="#000000" transform="matrix(1.00, 0.00, -0.00, -1.00, 552.3, 375.0)">Z</text><text xml:space="preserve" font-family="DIN2014-Regular" font-size="21.6" fill="#000000" transform="matrix(1.00, 0.00, -0.00, -1.00, 565.9, 375.0)">E</text><text xml:space="preserve" font-family="DIN2014-Regular" font-size="21.6" fill="#000000" transform="matrix(1.00, 0.00, -0.00, -1.00, 580.1, 375.0)">S</text><text xml:space="preserve" font-family="DIN2014-Regular" font-size="27.0" fill="#000000" transform="matrix(1.00, 0.00, -0.00, -1.00, 594.8, 375.0)"> </text><text xml:space="preserve" font-family="DIN2014-Regular" font-size="21.6" fill="#000000" transform="matrix(1.00, 0.00, -0.00, -1.00, 410.0, 340.0)">C</text><text xml:space="preserve" font-family="DIN2014-Regular" font-size="21.6" fill="#000000" transform="matrix(1.00, 0.00, -0.00, -1.00, 424.9, 340.0)">L</text><text xml:space="preserve" font-family="DIN2014-Regular" font-size="21.6" fill="#000000" transform="matrix(1.00, 0.00, -0.00, -1.00, 438.2, 340.0)">E</text><text xml:space="preserve" font-family="DIN2014-Regular" font-size="21.6" fill="#000000" transform="matrix(1.00, 0.00, -0.00, -1.00, 452.3, 340.0)">A</text><text xml:space="preserve" font-family="DIN2014-Regular" font-size="21.6" fill="#000000" transform="matrix(1.00, 0.00, -0.00, -1.00, 467.2, 340.0)">R</text><text xml:space="preserve" font-family="DIN2014-Regular" font-size="27.0" fill="#000000" transform="matrix(1.00, 0.00, -0.00, -1.00, 482.7, 340.0)"> </text><text xml:space="preserve" font-family="DIN2014-Regular" font-size="21.6" fill="#000000" transform="matrix(1.00, 0.00, -0.00, -1.00, 491.9, 340.0)">L</text><text xml:space="preserve" font-family="DIN2014-Regular" font-size="21.6" fill="#000000" transform="matrix(1.00, 0.00, -0.00, -1.00, 505.1, 340.0)">E</text><text xml:space="preserve" font-family="DIN2014-Regular" font-size="21.6" fill="#000000" transform="matrix(1.00, 0.00, -0.00, -1.00, 519.3, 340.0)">G</text><text xml:space="preserve" font-family="DIN2014-Regular" font-size="21.6" fill="#000000" transform="matrix(1.00, 0.00, -0.00, -1.00, 534.7, 340.0)">I</text><text xml:space="preserve" font-family="DIN2014-Regular" font-size="21.6" fill="#000000" transform="matrix(1.00, 0.00, -0.00, -1.00, 543.1, 340.0)">B</text><text xml:space="preserve" font-family="DIN2014-Regular" font-size="21.6" fill="#000000" transform="matrix(1.00, 0.00, -0.00, -1.00, 558.4, 340.0)">I</text><text xml:space="preserve" font-family="DIN2014-Regular" font-size="21.6" fill="#000000" transform="matrix(1.00, 0.00, -0.00, -1.00, 566.8, 340.0)">L</text><text xml:space="preserve" font-family="DIN2014-Regular" font-size="21.6" fill="#000000" transform="matrix(1.00, 0.00, -0.00, -1.00, 580.1, 340.0)">I</text><text xml:space="preserve" font-family="DIN2014-Regular" font-size="21.6" fill="#000000" transform="matrix(1.00, 0.00, -0.00, -1.00, 588.5, 340.0)">T</text><text xml:space="preserve" font-family="DIN2014-Regular" font-size="21.6" fill="#000000" transform="matrix(1.00, 0.00, -0.00, -1.00, 602.0, 340.0)">Y</text></g></svg>