<?xml version="1.0" encoding="UTF-8" standalone="no"?><svg xmlns="http://www.w3.org/2000/svg" xmlns:xlink="http://www.w3.org/1999/xlink" clip-rule="evenodd" stroke-miterlimit="4.00" viewBox="0 0 1024 768"><desc>SVG generated by Keynote</desc><defs></defs><g transform="matrix(1.00, 0.00, -0.00, -1.00, 0.0, 768.0)"><path d="M 0.0 768.0 L 1024.0 768.0 L 1024.0 0.0 L 0.0 0.0 Z M 0.0 768.0 " fill="#FEFFFF"></path><text xml:space="preserve" font-family="MrsEavesOT-Bold" font-weight="bold" font-size="32.0" fill="#000000" transform="matrix(1.00, 0.00, -0.00, -1.00, 364.0, 394.0)">J</text><text xml:space="preserve" font-family="MrsEavesOT-Bold" font-weight="bold" font-size="32.0" fill="#000000" transform="matrix(1.00, 0.00, -0.00, -1.00, 379.3, 394.0)">O</text><text xml:space="preserve" font-family="MrsEavesOT-Bold" font-weight="bold" font-size="32.0" fill="#000000" transform="matrix(1.00, 0.00, -0.00, -1.00, 408.4, 394.0)">S</text><text xml:space="preserve" font-family="MrsEavesOT-Bold" font-weight="bold" font-size="32.0" fill="#000000" transform="matrix(1.00, 0.00, -0.00, -1.00, 429.0, 394.0)">E</text><text xml:space="preserve" font-family="MrsEavesOT-Bold" font-weight="bold" font-size="32.0" fill="#000000" transform="matrix(1.00, 0.00, -0.00, -1.00, 453.5, 394.0)">P</text><text xml:space="preserve" font-family="MrsEavesOT-Bold" font-weight="bold" font-size="32.0" fill="#000000" transform="matrix(1.00, 0.00, -0.00, -1.00, 476.6, 394.0)">H</text><text xml:space="preserve" font-family="MrsEavesOT-Bold" font-weight="bold" font-size="40.0" fill="#000000" transform="matrix(1.00, 0.00, -0.00, -1.00, 506.9, 394.0)"> </text><text xml:space="preserve" font-family="MrsEavesOT-Bold" font-weight="bold" font-size="32.0" fill="#000000" transform="matrix(1.00, 0.00, -0.00, -1.00, 520.3, 394.0)">A</text><text xml:space="preserve" font-family="MrsEavesOT-Bold" font-weight="bold" font-size="32.0" fill="#000000" transform="matrix(1.00, 0.00, -0.00, -1.00, 544.3, 394.0)">L</text><text xml:space="preserve" font-family="MrsEavesOT-Bold" font-weight="bold" font-size="32.0" fill="#000000" transform="matrix(1.00, 0.00, -0.00, -1.00, 568.5, 394.0)">B</text><text xml:space="preserve" font-family="MrsEavesOT-Bold" font-weight="bold" font-size="32.0" fill="#000000" transform="matrix(1.00, 0.00, -0.00, -1.00, 593.5, 394.0)">E</text><text xml:space="preserve" font-family="MrsEavesOT-Bold" font-weight="bold" font-size="32.0" fill="#000000" transform="matrix(1.00, 0.00, -0.00, -1.00, 618.1, 394.0)">R</text><text xml:space="preserve" font-family="MrsEavesOT-Bold" font-weight="bold" font-size="32.0" fill="#000000" transform="matrix(1.00, 0.00, -0.00, -1.00, 643.8, 394.0)">S</text></g></svg>