<?xml version="1.0" encoding="UTF-8" standalone="no"?><svg xmlns="http://www.w3.org/2000/svg" xmlns:xlink="http://www.w3.org/1999/xlink" clip-rule="evenodd" stroke-miterlimit="4.00" viewBox="0 0 1024 768"><desc>SVG generated by Keynote</desc><defs></defs><g transform="matrix(1.00, 0.00, -0.00, -1.00, 0.0, 768.0)"><path d="M 0.0 768.0 L 1024.0 768.0 L 1024.0 0.0 L 0.0 0.0 Z M 0.0 768.0 " fill="#FEFFFF"></path><text xml:space="preserve" font-family="DIN2014-Regular" font-size="27.0" fill="#000000" transform="matrix(1.00, 0.00, -0.00, -1.00, 247.0, 445.0)">“</text><text xml:space="preserve" font-family="DIN2014-Regular" font-size="21.6" fill="#000000" transform="matrix(1.00, 0.00, -0.00, -1.00, 259.9, 445.0)">E</text><text xml:space="preserve" font-family="DIN2014-Regular" font-size="21.6" fill="#000000" transform="matrix(1.00, 0.00, -0.00, -1.00, 274.0, 445.0)">C</text><text xml:space="preserve" font-family="DIN2014-Regular" font-size="21.6" fill="#000000" transform="matrix(1.00, 0.00, -0.00, -1.00, 288.9, 445.0)">O</text><text xml:space="preserve" font-family="DIN2014-Regular" font-size="21.6" fill="#000000" transform="matrix(1.00, 0.00, -0.00, -1.00, 304.3, 445.0)">N</text><text xml:space="preserve" font-family="DIN2014-Regular" font-size="21.6" fill="#000000" transform="matrix(1.00, 0.00, -0.00, -1.00, 320.5, 445.0)">O</text><text xml:space="preserve" font-family="DIN2014-Regular" font-size="21.6" fill="#000000" transform="matrix(1.00, 0.00, -0.00, -1.00, 335.9, 445.0)">M</text><text xml:space="preserve" font-family="DIN2014-Regular" font-size="21.6" fill="#000000" transform="matrix(1.00, 0.00, -0.00, -1.00, 354.5, 445.0)">Y</text><text xml:space="preserve" font-family="DIN2014-Regular" font-size="27.0" fill="#000000" transform="matrix(1.00, 0.00, -0.00, -1.00, 369.0, 445.0)"> </text><text xml:space="preserve" font-family="DIN2014-Regular" font-size="21.6" fill="#000000" transform="matrix(1.00, 0.00, -0.00, -1.00, 378.2, 445.0)">A</text><text xml:space="preserve" font-family="DIN2014-Regular" font-size="21.6" fill="#000000" transform="matrix(1.00, 0.00, -0.00, -1.00, 393.1, 445.0)">N</text><text xml:space="preserve" font-family="DIN2014-Regular" font-size="21.6" fill="#000000" transform="matrix(1.00, 0.00, -0.00, -1.00, 409.3, 445.0)">D</text><text xml:space="preserve" font-family="DIN2014-Regular" font-size="27.0" fill="#000000" transform="matrix(1.00, 0.00, -0.00, -1.00, 424.8, 445.0)"> </text><text xml:space="preserve" font-family="DIN2014-Regular" font-size="21.6" fill="#000000" transform="matrix(1.00, 0.00, -0.00, -1.00, 434.0, 445.0)">T</text><text xml:space="preserve" font-family="DIN2014-Regular" font-size="21.6" fill="#000000" transform="matrix(1.00, 0.00, -0.00, -1.00, 447.6, 445.0)">H</text><text xml:space="preserve" font-family="DIN2014-Regular" font-size="21.6" fill="#000000" transform="matrix(1.00, 0.00, -0.00, -1.00, 463.8, 445.0)">E</text><text xml:space="preserve" font-family="DIN2014-Regular" font-size="21.6" fill="#000000" transform="matrix(1.00, 0.00, -0.00, -1.00, 477.9, 445.0)">R</text><text xml:space="preserve" font-family="DIN2014-Regular" font-size="21.6" fill="#000000" transform="matrix(1.00, 0.00, -0.00, -1.00, 493.4, 445.0)">E</text><text xml:space="preserve" font-family="DIN2014-Regular" font-size="21.6" fill="#000000" transform="matrix(1.00, 0.00, -0.00, -1.00, 507.5, 445.0)">F</text><text xml:space="preserve" font-family="DIN2014-Regular" font-size="21.6" fill="#000000" transform="matrix(1.00, 0.00, -0.00, -1.00, 521.4, 445.0)">O</text><text xml:space="preserve" font-family="DIN2014-Regular" font-size="21.6" fill="#000000" transform="matrix(1.00, 0.00, -0.00, -1.00, 536.8, 445.0)">R</text><text xml:space="preserve" font-family="DIN2014-Regular" font-size="21.6" fill="#000000" transform="matrix(1.00, 0.00, -0.00, -1.00, 552.3, 445.0)">E</text><text xml:space="preserve" font-family="DIN2014-Regular" font-size="27.0" fill="#000000" transform="matrix(1.00, 0.00, -0.00, -1.00, 566.4, 445.0)"> </text><text xml:space="preserve" font-family="DIN2014-Regular" font-size="21.6" fill="#000000" transform="matrix(1.00, 0.00, -0.00, -1.00, 575.6, 445.0)">T</text><text xml:space="preserve" font-family="DIN2014-Regular" font-size="21.6" fill="#000000" transform="matrix(1.00, 0.00, -0.00, -1.00, 589.1, 445.0)">E</text><text xml:space="preserve" font-family="DIN2014-Regular" font-size="21.6" fill="#000000" transform="matrix(1.00, 0.00, -0.00, -1.00, 603.3, 445.0)">C</text><text xml:space="preserve" font-family="DIN2014-Regular" font-size="21.6" fill="#000000" transform="matrix(1.00, 0.00, -0.00, -1.00, 618.2, 445.0)">H</text><text xml:space="preserve" font-family="DIN2014-Regular" font-size="21.6" fill="#000000" transform="matrix(1.00, 0.00, -0.00, -1.00, 634.4, 445.0)">N</text><text xml:space="preserve" font-family="DIN2014-Regular" font-size="21.6" fill="#000000" transform="matrix(1.00, 0.00, -0.00, -1.00, 650.6, 445.0)">O</text><text xml:space="preserve" font-family="DIN2014-Regular" font-size="21.6" fill="#000000" transform="matrix(1.00, 0.00, -0.00, -1.00, 666.0, 445.0)">L</text><text xml:space="preserve" font-family="DIN2014-Regular" font-size="21.6" fill="#000000" transform="matrix(1.00, 0.00, -0.00, -1.00, 678.8, 445.0)">O</text><text xml:space="preserve" font-family="DIN2014-Regular" font-size="21.6" fill="#000000" transform="matrix(1.00, 0.00, -0.00, -1.00, 694.2, 445.0)">G</text><text xml:space="preserve" font-family="DIN2014-Regular" font-size="21.6" fill="#000000" transform="matrix(1.00, 0.00, -0.00, -1.00, 709.5, 445.0)">Y</text><text xml:space="preserve" font-family="DIN2014-Regular" font-size="27.0" fill="#000000" transform="matrix(1.00, 0.00, -0.00, -1.00, 723.9, 445.0)"> </text><text xml:space="preserve" font-family="DIN2014-Regular" font-size="21.6" fill="#000000" transform="matrix(1.00, 0.00, -0.00, -1.00, 733.1, 445.0)">A</text><text xml:space="preserve" font-family="DIN2014-Regular" font-size="21.6" fill="#000000" transform="matrix(1.00, 0.00, -0.00, -1.00, 748.1, 445.0)">N</text><text xml:space="preserve" font-family="DIN2014-Regular" font-size="21.6" fill="#000000" transform="matrix(1.00, 0.00, -0.00, -1.00, 764.3, 445.0)">D</text><text xml:space="preserve" font-family="DIN2014-Regular" font-size="27.0" fill="#000000" transform="matrix(1.00, 0.00, -0.00, -1.00, 779.8, 445.0)"> </text><text xml:space="preserve" font-family="DIN2014-Regular" font-size="21.6" fill="#000000" transform="matrix(1.00, 0.00, -0.00, -1.00, 256.0, 410.0)">T</text><text xml:space="preserve" font-family="DIN2014-Regular" font-size="21.6" fill="#000000" transform="matrix(1.00, 0.00, -0.00, -1.00, 269.6, 410.0)">R</text><text xml:space="preserve" font-family="DIN2014-Regular" font-size="21.6" fill="#000000" transform="matrix(1.00, 0.00, -0.00, -1.00, 285.1, 410.0)">A</text><text xml:space="preserve" font-family="DIN2014-Regular" font-size="21.6" fill="#000000" transform="matrix(1.00, 0.00, -0.00, -1.00, 300.0, 410.0)">N</text><text xml:space="preserve" font-family="DIN2014-Regular" font-size="21.6" fill="#000000" transform="matrix(1.00, 0.00, -0.00, -1.00, 316.2, 410.0)">S</text><text xml:space="preserve" font-family="DIN2014-Regular" font-size="21.6" fill="#000000" transform="matrix(1.00, 0.00, -0.00, -1.00, 331.0, 410.0)">P</text><text xml:space="preserve" font-family="DIN2014-Regular" font-size="21.6" fill="#000000" transform="matrix(1.00, 0.00, -0.00, -1.00, 346.1, 410.0)">O</text><text xml:space="preserve" font-family="DIN2014-Regular" font-size="21.6" fill="#000000" transform="matrix(1.00, 0.00, -0.00, -1.00, 361.5, 410.0)">R</text><text xml:space="preserve" font-family="DIN2014-Regular" font-size="21.6" fill="#000000" transform="matrix(1.00, 0.00, -0.00, -1.00, 376.8, 410.0)">T</text><text xml:space="preserve" font-family="DIN2014-Regular" font-size="21.6" fill="#000000" transform="matrix(1.00, 0.00, -0.00, -1.00, 389.7, 410.0)">A</text><text xml:space="preserve" font-family="DIN2014-Regular" font-size="21.6" fill="#000000" transform="matrix(1.00, 0.00, -0.00, -1.00, 404.0, 410.0)">T</text><text xml:space="preserve" font-family="DIN2014-Regular" font-size="21.6" fill="#000000" transform="matrix(1.00, 0.00, -0.00, -1.00, 417.6, 410.0)">I</text><text xml:space="preserve" font-family="DIN2014-Regular" font-size="21.6" fill="#000000" transform="matrix(1.00, 0.00, -0.00, -1.00, 426.0, 410.0)">O</text><text xml:space="preserve" font-family="DIN2014-Regular" font-size="21.6" fill="#000000" transform="matrix(1.00, 0.00, -0.00, -1.00, 441.4, 410.0)">N</text><text xml:space="preserve" font-family="DIN2014-Regular" font-size="27.0" fill="#000000" transform="matrix(1.00, 0.00, -0.00, -1.00, 457.6, 410.0)"> </text><text xml:space="preserve" font-family="DIN2014-Regular" font-size="21.6" fill="#000000" transform="matrix(1.00, 0.00, -0.00, -1.00, 466.8, 410.0)">P</text><text xml:space="preserve" font-family="DIN2014-Regular" font-size="21.6" fill="#000000" transform="matrix(1.00, 0.00, -0.00, -1.00, 481.9, 410.0)">R</text><text xml:space="preserve" font-family="DIN2014-Regular" font-size="21.6" fill="#000000" transform="matrix(1.00, 0.00, -0.00, -1.00, 497.4, 410.0)">E</text><text xml:space="preserve" font-family="DIN2014-Regular" font-size="21.6" fill="#000000" transform="matrix(1.00, 0.00, -0.00, -1.00, 511.5, 410.0)">V</text><text xml:space="preserve" font-family="DIN2014-Regular" font-size="21.6" fill="#000000" transform="matrix(1.00, 0.00, -0.00, -1.00, 526.2, 410.0)">A</text><text xml:space="preserve" font-family="DIN2014-Regular" font-size="21.6" fill="#000000" transform="matrix(1.00, 0.00, -0.00, -1.00, 541.2, 410.0)">I</text><text xml:space="preserve" font-family="DIN2014-Regular" font-size="21.6" fill="#000000" transform="matrix(1.00, 0.00, -0.00, -1.00, 549.6, 410.0)">L</text><text xml:space="preserve" font-family="DIN2014-Regular" font-size="27.0" fill="#000000" transform="matrix(1.00, 0.00, -0.00, -1.00, 562.8, 410.0)">,</text><text xml:space="preserve" font-family="DIN2014-Regular" font-size="27.0" fill="#000000" transform="matrix(1.00, 0.00, -0.00, -1.00, 571.1, 410.0)"> </text><text xml:space="preserve" font-family="DIN2014-Regular" font-size="21.6" fill="#000000" transform="matrix(1.00, 0.00, -0.00, -1.00, 580.3, 410.0)">A</text><text xml:space="preserve" font-family="DIN2014-Regular" font-size="21.6" fill="#000000" transform="matrix(1.00, 0.00, -0.00, -1.00, 595.2, 410.0)">N</text><text xml:space="preserve" font-family="DIN2014-Regular" font-size="21.6" fill="#000000" transform="matrix(1.00, 0.00, -0.00, -1.00, 611.4, 410.0)">D</text><text xml:space="preserve" font-family="DIN2014-Regular" font-size="27.0" fill="#000000" transform="matrix(1.00, 0.00, -0.00, -1.00, 626.9, 410.0)"> </text><text xml:space="preserve" font-family="DIN2014-Regular" font-size="21.6" fill="#000000" transform="matrix(1.00, 0.00, -0.00, -1.00, 636.1, 410.0)">T</text><text xml:space="preserve" font-family="DIN2014-Regular" font-size="21.6" fill="#000000" transform="matrix(1.00, 0.00, -0.00, -1.00, 649.7, 410.0)">H</text><text xml:space="preserve" font-family="DIN2014-Regular" font-size="21.6" fill="#000000" transform="matrix(1.00, 0.00, -0.00, -1.00, 665.9, 410.0)">U</text><text xml:space="preserve" font-family="DIN2014-Regular" font-size="21.6" fill="#000000" transform="matrix(1.00, 0.00, -0.00, -1.00, 682.8, 410.0)">S</text><text xml:space="preserve" font-family="DIN2014-Regular" font-size="27.0" fill="#000000" transform="matrix(1.00, 0.00, -0.00, -1.00, 697.6, 410.0)"> </text><text xml:space="preserve" font-family="DIN2014-Regular" font-size="21.6" fill="#000000" transform="matrix(1.00, 0.00, -0.00, -1.00, 706.8, 410.0)">R</text><text xml:space="preserve" font-family="DIN2014-Regular" font-size="21.6" fill="#000000" transform="matrix(1.00, 0.00, -0.00, -1.00, 722.2, 410.0)">I</text><text xml:space="preserve" font-family="DIN2014-Regular" font-size="21.6" fill="#000000" transform="matrix(1.00, 0.00, -0.00, -1.00, 730.6, 410.0)">G</text><text xml:space="preserve" font-family="DIN2014-Regular" font-size="21.6" fill="#000000" transform="matrix(1.00, 0.00, -0.00, -1.00, 746.1, 410.0)">I</text><text xml:space="preserve" font-family="DIN2014-Regular" font-size="21.6" fill="#000000" transform="matrix(1.00, 0.00, -0.00, -1.00, 754.5, 410.0)">D</text><text xml:space="preserve" font-family="DIN2014-Regular" font-size="27.0" fill="#000000" transform="matrix(1.00, 0.00, -0.00, -1.00, 770.0, 410.0)"> </text><text xml:space="preserve" font-family="DIN2014-Regular" font-size="21.6" fill="#000000" transform="matrix(1.00, 0.00, -0.00, -1.00, 249.0, 375.0)">S</text><text xml:space="preserve" font-family="DIN2014-Regular" font-size="21.6" fill="#000000" transform="matrix(1.00, 0.00, -0.00, -1.00, 263.4, 375.0)">T</text><text xml:space="preserve" font-family="DIN2014-Regular" font-size="21.6" fill="#000000" transform="matrix(1.00, 0.00, -0.00, -1.00, 276.3, 375.0)">A</text><text xml:space="preserve" font-family="DIN2014-Regular" font-size="21.6" fill="#000000" transform="matrix(1.00, 0.00, -0.00, -1.00, 291.3, 375.0)">N</text><text xml:space="preserve" font-family="DIN2014-Regular" font-size="21.6" fill="#000000" transform="matrix(1.00, 0.00, -0.00, -1.00, 307.5, 375.0)">D</text><text xml:space="preserve" font-family="DIN2014-Regular" font-size="21.6" fill="#000000" transform="matrix(1.00, 0.00, -0.00, -1.00, 323.0, 375.0)">A</text><text xml:space="preserve" font-family="DIN2014-Regular" font-size="21.6" fill="#000000" transform="matrix(1.00, 0.00, -0.00, -1.00, 338.0, 375.0)">R</text><text xml:space="preserve" font-family="DIN2014-Regular" font-size="21.6" fill="#000000" transform="matrix(1.00, 0.00, -0.00, -1.00, 353.4, 375.0)">D</text><text xml:space="preserve" font-family="DIN2014-Regular" font-size="21.6" fill="#000000" transform="matrix(1.00, 0.00, -0.00, -1.00, 368.9, 375.0)">I</text><text xml:space="preserve" font-family="DIN2014-Regular" font-size="21.6" fill="#000000" transform="matrix(1.00, 0.00, -0.00, -1.00, 377.3, 375.0)">Z</text><text xml:space="preserve" font-family="DIN2014-Regular" font-size="21.6" fill="#000000" transform="matrix(1.00, 0.00, -0.00, -1.00, 391.0, 375.0)">A</text><text xml:space="preserve" font-family="DIN2014-Regular" font-size="21.6" fill="#000000" transform="matrix(1.00, 0.00, -0.00, -1.00, 405.3, 375.0)">T</text><text xml:space="preserve" font-family="DIN2014-Regular" font-size="21.6" fill="#000000" transform="matrix(1.00, 0.00, -0.00, -1.00, 418.9, 375.0)">I</text><text xml:space="preserve" font-family="DIN2014-Regular" font-size="21.6" fill="#000000" transform="matrix(1.00, 0.00, -0.00, -1.00, 427.3, 375.0)">O</text><text xml:space="preserve" font-family="DIN2014-Regular" font-size="21.6" fill="#000000" transform="matrix(1.00, 0.00, -0.00, -1.00, 442.6, 375.0)">N</text><text xml:space="preserve" font-family="DIN2014-Regular" font-size="27.0" fill="#000000" transform="matrix(1.00, 0.00, -0.00, -1.00, 458.9, 375.0)"> </text><text xml:space="preserve" font-family="DIN2014-Regular" font-size="21.6" fill="#000000" transform="matrix(1.00, 0.00, -0.00, -1.00, 468.0, 375.0)">I</text><text xml:space="preserve" font-family="DIN2014-Regular" font-size="21.6" fill="#000000" transform="matrix(1.00, 0.00, -0.00, -1.00, 476.4, 375.0)">S</text><text xml:space="preserve" font-family="DIN2014-Regular" font-size="27.0" fill="#000000" transform="matrix(1.00, 0.00, -0.00, -1.00, 491.2, 375.0)"> </text><text xml:space="preserve" font-family="DIN2014-Regular" font-size="21.6" fill="#000000" transform="matrix(1.00, 0.00, -0.00, -1.00, 500.4, 375.0)">R</text><text xml:space="preserve" font-family="DIN2014-Regular" font-size="21.6" fill="#000000" transform="matrix(1.00, 0.00, -0.00, -1.00, 515.8, 375.0)">E</text><text xml:space="preserve" font-family="DIN2014-Regular" font-size="21.6" fill="#000000" transform="matrix(1.00, 0.00, -0.00, -1.00, 530.0, 375.0)">Q</text><text xml:space="preserve" font-family="DIN2014-Regular" font-size="21.6" fill="#000000" transform="matrix(1.00, 0.00, -0.00, -1.00, 545.4, 375.0)">U</text><text xml:space="preserve" font-family="DIN2014-Regular" font-size="21.6" fill="#000000" transform="matrix(1.00, 0.00, -0.00, -1.00, 562.3, 375.0)">I</text><text xml:space="preserve" font-family="DIN2014-Regular" font-size="21.6" fill="#000000" transform="matrix(1.00, 0.00, -0.00, -1.00, 570.6, 375.0)">R</text><text xml:space="preserve" font-family="DIN2014-Regular" font-size="21.6" fill="#000000" transform="matrix(1.00, 0.00, -0.00, -1.00, 586.1, 375.0)">E</text><text xml:space="preserve" font-family="DIN2014-Regular" font-size="21.6" fill="#000000" transform="matrix(1.00, 0.00, -0.00, -1.00, 600.2, 375.0)">D</text><text xml:space="preserve" font-family="DIN2014-Regular" font-size="27.0" fill="#000000" transform="matrix(1.00, 0.00, -0.00, -1.00, 615.7, 375.0)">.</text><text xml:space="preserve" font-family="DIN2014-Regular" font-size="27.0" fill="#000000" transform="matrix(1.00, 0.00, -0.00, -1.00, 624.5, 375.0)"> </text><text xml:space="preserve" font-family="DIN2014-Regular" font-size="21.6" fill="#000000" transform="matrix(1.00, 0.00, -0.00, -1.00, 633.7, 375.0)">E</text><text xml:space="preserve" font-family="DIN2014-Regular" font-size="21.6" fill="#000000" transform="matrix(1.00, 0.00, -0.00, -1.00, 647.8, 375.0)">V</text><text xml:space="preserve" font-family="DIN2014-Regular" font-size="21.6" fill="#000000" transform="matrix(1.00, 0.00, -0.00, -1.00, 663.2, 375.0)">E</text><text xml:space="preserve" font-family="DIN2014-Regular" font-size="21.6" fill="#000000" transform="matrix(1.00, 0.00, -0.00, -1.00, 677.4, 375.0)">R</text><text xml:space="preserve" font-family="DIN2014-Regular" font-size="21.6" fill="#000000" transform="matrix(1.00, 0.00, -0.00, -1.00, 692.5, 375.0)">Y</text><text xml:space="preserve" font-family="DIN2014-Regular" font-size="21.6" fill="#000000" transform="matrix(1.00, 0.00, -0.00, -1.00, 707.0, 375.0)">T</text><text xml:space="preserve" font-family="DIN2014-Regular" font-size="21.6" fill="#000000" transform="matrix(1.00, 0.00, -0.00, -1.00, 720.5, 375.0)">H</text><text xml:space="preserve" font-family="DIN2014-Regular" font-size="21.6" fill="#000000" transform="matrix(1.00, 0.00, -0.00, -1.00, 736.8, 375.0)">I</text><text xml:space="preserve" font-family="DIN2014-Regular" font-size="21.6" fill="#000000" transform="matrix(1.00, 0.00, -0.00, -1.00, 745.2, 375.0)">N</text><text xml:space="preserve" font-family="DIN2014-Regular" font-size="21.6" fill="#000000" transform="matrix(1.00, 0.00, -0.00, -1.00, 761.4, 375.0)">G</text><text xml:space="preserve" font-family="DIN2014-Regular" font-size="27.0" fill="#000000" transform="matrix(1.00, 0.00, -0.00, -1.00, 776.8, 375.0)"> </text><text xml:space="preserve" font-family="DIN2014-Regular" font-size="21.6" fill="#000000" transform="matrix(1.00, 0.00, -0.00, -1.00, 381.0, 340.0)">D</text><text xml:space="preserve" font-family="DIN2014-Regular" font-size="21.6" fill="#000000" transform="matrix(1.00, 0.00, -0.00, -1.00, 396.5, 340.0)">E</text><text xml:space="preserve" font-family="DIN2014-Regular" font-size="21.6" fill="#000000" transform="matrix(1.00, 0.00, -0.00, -1.00, 410.6, 340.0)">M</text><text xml:space="preserve" font-family="DIN2014-Regular" font-size="21.6" fill="#000000" transform="matrix(1.00, 0.00, -0.00, -1.00, 429.3, 340.0)">A</text><text xml:space="preserve" font-family="DIN2014-Regular" font-size="21.6" fill="#000000" transform="matrix(1.00, 0.00, -0.00, -1.00, 444.2, 340.0)">N</text><text xml:space="preserve" font-family="DIN2014-Regular" font-size="21.6" fill="#000000" transform="matrix(1.00, 0.00, -0.00, -1.00, 460.5, 340.0)">D</text><text xml:space="preserve" font-family="DIN2014-Regular" font-size="21.6" fill="#000000" transform="matrix(1.00, 0.00, -0.00, -1.00, 476.0, 340.0)">S</text><text xml:space="preserve" font-family="DIN2014-Regular" font-size="27.0" fill="#000000" transform="matrix(1.00, 0.00, -0.00, -1.00, 490.7, 340.0)"> </text><text xml:space="preserve" font-family="DIN2014-Regular" font-size="21.6" fill="#000000" transform="matrix(1.00, 0.00, -0.00, -1.00, 499.9, 340.0)">C</text><text xml:space="preserve" font-family="DIN2014-Regular" font-size="21.6" fill="#000000" transform="matrix(1.00, 0.00, -0.00, -1.00, 514.8, 340.0)">O</text><text xml:space="preserve" font-family="DIN2014-Regular" font-size="21.6" fill="#000000" transform="matrix(1.00, 0.00, -0.00, -1.00, 530.2, 340.0)">N</text><text xml:space="preserve" font-family="DIN2014-Regular" font-size="21.6" fill="#000000" transform="matrix(1.00, 0.00, -0.00, -1.00, 546.4, 340.0)">C</text><text xml:space="preserve" font-family="DIN2014-Regular" font-size="21.6" fill="#000000" transform="matrix(1.00, 0.00, -0.00, -1.00, 561.3, 340.0)">I</text><text xml:space="preserve" font-family="DIN2014-Regular" font-size="21.6" fill="#000000" transform="matrix(1.00, 0.00, -0.00, -1.00, 569.7, 340.0)">S</text><text xml:space="preserve" font-family="DIN2014-Regular" font-size="21.6" fill="#000000" transform="matrix(1.00, 0.00, -0.00, -1.00, 584.5, 340.0)">I</text><text xml:space="preserve" font-family="DIN2014-Regular" font-size="21.6" fill="#000000" transform="matrix(1.00, 0.00, -0.00, -1.00, 592.9, 340.0)">O</text><text xml:space="preserve" font-family="DIN2014-Regular" font-size="21.6" fill="#000000" transform="matrix(1.00, 0.00, -0.00, -1.00, 608.3, 340.0)">N</text><text xml:space="preserve" font-family="DIN2014-Regular" font-size="27.0" fill="#000000" transform="matrix(1.00, 0.00, -0.00, -1.00, 624.5, 340.0)">.</text><text xml:space="preserve" font-family="DIN2014-Regular" font-size="27.0" fill="#000000" transform="matrix(1.00, 0.00, -0.00, -1.00, 632.5, 340.0)">”</text><text xml:space="preserve" font-family="DIN2014-Regular" font-size="27.0" fill="#000000" transform="matrix(1.00, 0.00, -0.00, -1.00, 645.3, 340.0)"> </text></g></svg>