<?xml version="1.0" encoding="UTF-8" standalone="no"?><svg xmlns="http://www.w3.org/2000/svg" xmlns:xlink="http://www.w3.org/1999/xlink" clip-rule="evenodd" stroke-miterlimit="4.00" viewBox="0 0 1024 768"><desc>SVG generated by Keynote</desc><defs></defs><g transform="matrix(1.00, 0.00, -0.00, -1.00, 0.0, 768.0)"><path d="M 0.0 768.0 L 1024.0 768.0 L 1024.0 0.0 L 0.0 0.0 Z M 0.0 768.0 " fill="#FEFFFF"></path><text xml:space="preserve" font-family="DIN2014-Regular" font-size="21.6" fill="#000000" transform="matrix(1.00, 0.00, -0.00, -1.00, 426.0, 462.0)">T</text><text xml:space="preserve" font-family="DIN2014-Regular" font-size="21.6" fill="#000000" transform="matrix(1.00, 0.00, -0.00, -1.00, 439.6, 462.0)">I</text><text xml:space="preserve" font-family="DIN2014-Regular" font-size="21.6" fill="#000000" transform="matrix(1.00, 0.00, -0.00, -1.00, 448.0, 462.0)">M</text><text xml:space="preserve" font-family="DIN2014-Regular" font-size="21.6" fill="#000000" transform="matrix(1.00, 0.00, -0.00, -1.00, 466.6, 462.0)">E</text><text xml:space="preserve" font-family="DIN2014-Regular" font-size="27.0" fill="#000000" transform="matrix(1.00, 0.00, -0.00, -1.00, 480.8, 462.0)"> </text><text xml:space="preserve" font-family="DIN2014-Regular" font-size="21.6" fill="#000000" transform="matrix(1.00, 0.00, -0.00, -1.00, 489.9, 462.0)">I</text><text xml:space="preserve" font-family="DIN2014-Regular" font-size="21.6" fill="#000000" transform="matrix(1.00, 0.00, -0.00, -1.00, 498.3, 462.0)">S</text><text xml:space="preserve" font-family="DIN2014-Regular" font-size="27.0" fill="#000000" transform="matrix(1.00, 0.00, -0.00, -1.00, 513.1, 462.0)"> </text><text xml:space="preserve" font-family="DIN2014-Regular" font-size="21.6" fill="#000000" transform="matrix(1.00, 0.00, -0.00, -1.00, 522.3, 462.0)">M</text><text xml:space="preserve" font-family="DIN2014-Regular" font-size="21.6" fill="#000000" transform="matrix(1.00, 0.00, -0.00, -1.00, 540.9, 462.0)">O</text><text xml:space="preserve" font-family="DIN2014-Regular" font-size="21.6" fill="#000000" transform="matrix(1.00, 0.00, -0.00, -1.00, 556.3, 462.0)">N</text><text xml:space="preserve" font-family="DIN2014-Regular" font-size="21.6" fill="#000000" transform="matrix(1.00, 0.00, -0.00, -1.00, 572.5, 462.0)">E</text><text xml:space="preserve" font-family="DIN2014-Regular" font-size="21.6" fill="#000000" transform="matrix(1.00, 0.00, -0.00, -1.00, 586.7, 462.0)">Y</text><text xml:space="preserve" font-family="DIN2014-Regular" font-size="27.0" fill="#000000" transform="matrix(1.00, 0.00, -0.00, -1.00, 601.1, 462.0)"> </text><text xml:space="preserve" font-family="DIN2014-Regular" font-size="21.6" fill="#000000" transform="matrix(1.00, 0.00, -0.00, -1.00, 391.0, 427.0)">L</text><text xml:space="preserve" font-family="DIN2014-Regular" font-size="21.6" fill="#000000" transform="matrix(1.00, 0.00, -0.00, -1.00, 404.3, 427.0)">I</text><text xml:space="preserve" font-family="DIN2014-Regular" font-size="21.6" fill="#000000" transform="matrix(1.00, 0.00, -0.00, -1.00, 412.6, 427.0)">F</text><text xml:space="preserve" font-family="DIN2014-Regular" font-size="21.6" fill="#000000" transform="matrix(1.00, 0.00, -0.00, -1.00, 426.5, 427.0)">E</text><text xml:space="preserve" font-family="DIN2014-Regular" font-size="27.0" fill="#000000" transform="matrix(1.00, 0.00, -0.00, -1.00, 440.7, 427.0)"> </text><text xml:space="preserve" font-family="DIN2014-Regular" font-size="21.6" fill="#000000" transform="matrix(1.00, 0.00, -0.00, -1.00, 449.8, 427.0)">A</text><text xml:space="preserve" font-family="DIN2014-Regular" font-size="21.6" fill="#000000" transform="matrix(1.00, 0.00, -0.00, -1.00, 464.1, 427.0)">T</text><text xml:space="preserve" font-family="DIN2014-Regular" font-size="27.0" fill="#000000" transform="matrix(1.00, 0.00, -0.00, -1.00, 477.7, 427.0)"> </text><text xml:space="preserve" font-family="DIN2014-Regular" font-size="21.6" fill="#000000" transform="matrix(1.00, 0.00, -0.00, -1.00, 486.9, 427.0)">A</text><text xml:space="preserve" font-family="DIN2014-Regular" font-size="27.0" fill="#000000" transform="matrix(1.00, 0.00, -0.00, -1.00, 501.9, 427.0)"> </text><text xml:space="preserve" font-family="DIN2014-Regular" font-size="21.6" fill="#000000" transform="matrix(1.00, 0.00, -0.00, -1.00, 511.0, 427.0)">F</text><text xml:space="preserve" font-family="DIN2014-Regular" font-size="21.6" fill="#000000" transform="matrix(1.00, 0.00, -0.00, -1.00, 524.3, 427.0)">A</text><text xml:space="preserve" font-family="DIN2014-Regular" font-size="21.6" fill="#000000" transform="matrix(1.00, 0.00, -0.00, -1.00, 539.3, 427.0)">S</text><text xml:space="preserve" font-family="DIN2014-Regular" font-size="21.6" fill="#000000" transform="matrix(1.00, 0.00, -0.00, -1.00, 553.7, 427.0)">T</text><text xml:space="preserve" font-family="DIN2014-Regular" font-size="27.0" fill="#000000" transform="matrix(1.00, 0.00, -0.00, -1.00, 567.2, 427.0)"> </text><text xml:space="preserve" font-family="DIN2014-Regular" font-size="21.6" fill="#000000" transform="matrix(1.00, 0.00, -0.00, -1.00, 576.4, 427.0)">P</text><text xml:space="preserve" font-family="DIN2014-Regular" font-size="21.6" fill="#000000" transform="matrix(1.00, 0.00, -0.00, -1.00, 590.6, 427.0)">A</text><text xml:space="preserve" font-family="DIN2014-Regular" font-size="21.6" fill="#000000" transform="matrix(1.00, 0.00, -0.00, -1.00, 605.5, 427.0)">C</text><text xml:space="preserve" font-family="DIN2014-Regular" font-size="21.6" fill="#000000" transform="matrix(1.00, 0.00, -0.00, -1.00, 620.4, 427.0)">E</text><text xml:space="preserve" font-family="DIN2014-Regular" font-size="27.0" fill="#000000" transform="matrix(1.00, 0.00, -0.00, -1.00, 634.6, 427.0)"> </text><text xml:space="preserve" font-family="DIN2014-Regular" font-size="21.6" fill="#000000" transform="matrix(1.00, 0.00, -0.00, -1.00, 321.0, 357.0)">S</text><text xml:space="preserve" font-family="DIN2014-Regular" font-size="21.6" fill="#000000" transform="matrix(1.00, 0.00, -0.00, -1.00, 335.8, 357.0)">H</text><text xml:space="preserve" font-family="DIN2014-Regular" font-size="21.6" fill="#000000" transform="matrix(1.00, 0.00, -0.00, -1.00, 352.0, 357.0)">O</text><text xml:space="preserve" font-family="DIN2014-Regular" font-size="21.6" fill="#000000" transform="matrix(1.00, 0.00, -0.00, -1.00, 367.4, 357.0)">R</text><text xml:space="preserve" font-family="DIN2014-Regular" font-size="21.6" fill="#000000" transform="matrix(1.00, 0.00, -0.00, -1.00, 382.6, 357.0)">T</text><text xml:space="preserve" font-family="DIN2014-Regular" font-size="21.6" fill="#000000" transform="matrix(1.00, 0.00, -0.00, -1.00, 396.2, 357.0)">H</text><text xml:space="preserve" font-family="DIN2014-Regular" font-size="21.6" fill="#000000" transform="matrix(1.00, 0.00, -0.00, -1.00, 412.4, 357.0)">A</text><text xml:space="preserve" font-family="DIN2014-Regular" font-size="21.6" fill="#000000" transform="matrix(1.00, 0.00, -0.00, -1.00, 427.4, 357.0)">N</text><text xml:space="preserve" font-family="DIN2014-Regular" font-size="21.6" fill="#000000" transform="matrix(1.00, 0.00, -0.00, -1.00, 443.6, 357.0)">D</text><text xml:space="preserve" font-family="DIN2014-Regular" font-size="27.0" fill="#000000" transform="matrix(1.00, 0.00, -0.00, -1.00, 459.1, 357.0)"> </text><text xml:space="preserve" font-family="DIN2014-Regular" font-size="27.0" fill="#000000" transform="matrix(1.00, 0.00, -0.00, -1.00, 468.3, 357.0)">/</text><text xml:space="preserve" font-family="DIN2014-Regular" font-size="27.0" fill="#000000" transform="matrix(1.00, 0.00, -0.00, -1.00, 483.8, 357.0)"> </text><text xml:space="preserve" font-family="DIN2014-Regular" font-size="21.6" fill="#000000" transform="matrix(1.00, 0.00, -0.00, -1.00, 493.0, 357.0)">T</text><text xml:space="preserve" font-family="DIN2014-Regular" font-size="21.6" fill="#000000" transform="matrix(1.00, 0.00, -0.00, -1.00, 506.5, 357.0)">E</text><text xml:space="preserve" font-family="DIN2014-Regular" font-size="21.6" fill="#000000" transform="matrix(1.00, 0.00, -0.00, -1.00, 520.7, 357.0)">L</text><text xml:space="preserve" font-family="DIN2014-Regular" font-size="21.6" fill="#000000" transform="matrix(1.00, 0.00, -0.00, -1.00, 533.9, 357.0)">E</text><text xml:space="preserve" font-family="DIN2014-Regular" font-size="21.6" fill="#000000" transform="matrix(1.00, 0.00, -0.00, -1.00, 548.0, 357.0)">G</text><text xml:space="preserve" font-family="DIN2014-Regular" font-size="21.6" fill="#000000" transform="matrix(1.00, 0.00, -0.00, -1.00, 563.5, 357.0)">R</text><text xml:space="preserve" font-family="DIN2014-Regular" font-size="21.6" fill="#000000" transform="matrix(1.00, 0.00, -0.00, -1.00, 579.0, 357.0)">A</text><text xml:space="preserve" font-family="DIN2014-Regular" font-size="21.6" fill="#000000" transform="matrix(1.00, 0.00, -0.00, -1.00, 593.9, 357.0)">M</text><text xml:space="preserve" font-family="DIN2014-Regular" font-size="27.0" fill="#000000" transform="matrix(1.00, 0.00, -0.00, -1.00, 612.6, 357.0)"> </text><text xml:space="preserve" font-family="DIN2014-Regular" font-size="27.0" fill="#000000" transform="matrix(1.00, 0.00, -0.00, -1.00, 621.8, 357.0)">/</text><text xml:space="preserve" font-family="DIN2014-Regular" font-size="27.0" fill="#000000" transform="matrix(1.00, 0.00, -0.00, -1.00, 637.3, 357.0)"> </text><text xml:space="preserve" font-family="DIN2014-Regular" font-size="21.6" fill="#000000" transform="matrix(1.00, 0.00, -0.00, -1.00, 646.5, 357.0)">C</text><text xml:space="preserve" font-family="DIN2014-Regular" font-size="21.6" fill="#000000" transform="matrix(1.00, 0.00, -0.00, -1.00, 661.4, 357.0)">O</text><text xml:space="preserve" font-family="DIN2014-Regular" font-size="21.6" fill="#000000" transform="matrix(1.00, 0.00, -0.00, -1.00, 676.8, 357.0)">D</text><text xml:space="preserve" font-family="DIN2014-Regular" font-size="21.6" fill="#000000" transform="matrix(1.00, 0.00, -0.00, -1.00, 692.3, 357.0)">E</text><text xml:space="preserve" font-family="DIN2014-Regular" font-size="27.0" fill="#000000" transform="matrix(1.00, 0.00, -0.00, -1.00, 706.4, 357.0)"> </text><text xml:space="preserve" font-family="DIN2014-Regular" font-size="21.6" fill="#000000" transform="matrix(1.00, 0.00, -0.00, -1.00, 396.0, 322.0)">C</text><text xml:space="preserve" font-family="DIN2014-Regular" font-size="21.6" fill="#000000" transform="matrix(1.00, 0.00, -0.00, -1.00, 410.9, 322.0)">O</text><text xml:space="preserve" font-family="DIN2014-Regular" font-size="21.6" fill="#000000" transform="matrix(1.00, 0.00, -0.00, -1.00, 426.3, 322.0)">N</text><text xml:space="preserve" font-family="DIN2014-Regular" font-size="21.6" fill="#000000" transform="matrix(1.00, 0.00, -0.00, -1.00, 442.5, 322.0)">D</text><text xml:space="preserve" font-family="DIN2014-Regular" font-size="21.6" fill="#000000" transform="matrix(1.00, 0.00, -0.00, -1.00, 458.0, 322.0)">E</text><text xml:space="preserve" font-family="DIN2014-Regular" font-size="21.6" fill="#000000" transform="matrix(1.00, 0.00, -0.00, -1.00, 472.1, 322.0)">N</text><text xml:space="preserve" font-family="DIN2014-Regular" font-size="21.6" fill="#000000" transform="matrix(1.00, 0.00, -0.00, -1.00, 488.3, 322.0)">S</text><text xml:space="preserve" font-family="DIN2014-Regular" font-size="21.6" fill="#000000" transform="matrix(1.00, 0.00, -0.00, -1.00, 503.1, 322.0)">E</text><text xml:space="preserve" font-family="DIN2014-Regular" font-size="21.6" fill="#000000" transform="matrix(1.00, 0.00, -0.00, -1.00, 517.2, 322.0)">D</text><text xml:space="preserve" font-family="DIN2014-Regular" font-size="27.0" fill="#000000" transform="matrix(1.00, 0.00, -0.00, -1.00, 532.7, 322.0)"> </text><text xml:space="preserve" font-family="DIN2014-Regular" font-size="21.6" fill="#000000" transform="matrix(1.00, 0.00, -0.00, -1.00, 541.9, 322.0)">S</text><text xml:space="preserve" font-family="DIN2014-Regular" font-size="21.6" fill="#000000" transform="matrix(1.00, 0.00, -0.00, -1.00, 556.7, 322.0)">P</text><text xml:space="preserve" font-family="DIN2014-Regular" font-size="21.6" fill="#000000" transform="matrix(1.00, 0.00, -0.00, -1.00, 571.8, 322.0)">E</text><text xml:space="preserve" font-family="DIN2014-Regular" font-size="21.6" fill="#000000" transform="matrix(1.00, 0.00, -0.00, -1.00, 585.9, 322.0)">E</text><text xml:space="preserve" font-family="DIN2014-Regular" font-size="21.6" fill="#000000" transform="matrix(1.00, 0.00, -0.00, -1.00, 600.0, 322.0)">C</text><text xml:space="preserve" font-family="DIN2014-Regular" font-size="21.6" fill="#000000" transform="matrix(1.00, 0.00, -0.00, -1.00, 614.9, 322.0)">H</text><text xml:space="preserve" font-family="DIN2014-Regular" font-size="27.0" fill="#000000" transform="matrix(1.00, 0.00, -0.00, -1.00, 631.1, 322.0)"> </text><text xml:space="preserve" font-family="DIN2014-Regular" font-size="21.6" fill="#000000" transform="matrix(1.00, 0.00, -0.00, -1.00, 288.0, 287.0)">E</text><text xml:space="preserve" font-family="DIN2014-Regular" font-size="21.6" fill="#000000" transform="matrix(1.00, 0.00, -0.00, -1.00, 302.1, 287.0)">X</text><text xml:space="preserve" font-family="DIN2014-Regular" font-size="21.6" fill="#000000" transform="matrix(1.00, 0.00, -0.00, -1.00, 316.5, 287.0)">P</text><text xml:space="preserve" font-family="DIN2014-Regular" font-size="21.6" fill="#000000" transform="matrix(1.00, 0.00, -0.00, -1.00, 331.6, 287.0)">R</text><text xml:space="preserve" font-family="DIN2014-Regular" font-size="21.6" fill="#000000" transform="matrix(1.00, 0.00, -0.00, -1.00, 347.1, 287.0)">E</text><text xml:space="preserve" font-family="DIN2014-Regular" font-size="21.6" fill="#000000" transform="matrix(1.00, 0.00, -0.00, -1.00, 361.2, 287.0)">S</text><text xml:space="preserve" font-family="DIN2014-Regular" font-size="21.6" fill="#000000" transform="matrix(1.00, 0.00, -0.00, -1.00, 376.0, 287.0)">S</text><text xml:space="preserve" font-family="DIN2014-Regular" font-size="21.6" fill="#000000" transform="matrix(1.00, 0.00, -0.00, -1.00, 390.7, 287.0)">I</text><text xml:space="preserve" font-family="DIN2014-Regular" font-size="21.6" fill="#000000" transform="matrix(1.00, 0.00, -0.00, -1.00, 399.1, 287.0)">O</text><text xml:space="preserve" font-family="DIN2014-Regular" font-size="21.6" fill="#000000" transform="matrix(1.00, 0.00, -0.00, -1.00, 414.5, 287.0)">N</text><text xml:space="preserve" font-family="DIN2014-Regular" font-size="27.0" fill="#000000" transform="matrix(1.00, 0.00, -0.00, -1.00, 430.7, 287.0)"> </text><text xml:space="preserve" font-family="DIN2014-Regular" font-size="27.0" fill="#000000" transform="matrix(1.00, 0.00, -0.00, -1.00, 439.9, 287.0)">+</text><text xml:space="preserve" font-family="DIN2014-Regular" font-size="27.0" fill="#000000" transform="matrix(1.00, 0.00, -0.00, -1.00, 455.8, 287.0)"> </text><text xml:space="preserve" font-family="DIN2014-Regular" font-size="21.6" fill="#000000" transform="matrix(1.00, 0.00, -0.00, -1.00, 465.0, 287.0)">G</text><text xml:space="preserve" font-family="DIN2014-Regular" font-size="21.6" fill="#000000" transform="matrix(1.00, 0.00, -0.00, -1.00, 480.5, 287.0)">E</text><text xml:space="preserve" font-family="DIN2014-Regular" font-size="21.6" fill="#000000" transform="matrix(1.00, 0.00, -0.00, -1.00, 494.6, 287.0)">S</text><text xml:space="preserve" font-family="DIN2014-Regular" font-size="21.6" fill="#000000" transform="matrix(1.00, 0.00, -0.00, -1.00, 509.0, 287.0)">T</text><text xml:space="preserve" font-family="DIN2014-Regular" font-size="21.6" fill="#000000" transform="matrix(1.00, 0.00, -0.00, -1.00, 522.6, 287.0)">U</text><text xml:space="preserve" font-family="DIN2014-Regular" font-size="21.6" fill="#000000" transform="matrix(1.00, 0.00, -0.00, -1.00, 539.5, 287.0)">R</text><text xml:space="preserve" font-family="DIN2014-Regular" font-size="21.6" fill="#000000" transform="matrix(1.00, 0.00, -0.00, -1.00, 555.0, 287.0)">E</text><text xml:space="preserve" font-family="DIN2014-Regular" font-size="27.0" fill="#000000" transform="matrix(1.00, 0.00, -0.00, -1.00, 569.1, 287.0)"> </text><text xml:space="preserve" font-family="DIN2014-Regular" font-size="21.6" fill="#000000" transform="matrix(1.00, 0.00, -0.00, -1.00, 578.3, 287.0)">A</text><text xml:space="preserve" font-family="DIN2014-Regular" font-size="21.6" fill="#000000" transform="matrix(1.00, 0.00, -0.00, -1.00, 593.2, 287.0)">S</text><text xml:space="preserve" font-family="DIN2014-Regular" font-size="27.0" fill="#000000" transform="matrix(1.00, 0.00, -0.00, -1.00, 608.0, 287.0)"> </text><text xml:space="preserve" font-family="DIN2014-Regular" font-size="21.6" fill="#000000" transform="matrix(1.00, 0.00, -0.00, -1.00, 617.2, 287.0)">L</text><text xml:space="preserve" font-family="DIN2014-Regular" font-size="21.6" fill="#000000" transform="matrix(1.00, 0.00, -0.00, -1.00, 630.6, 287.0)">A</text><text xml:space="preserve" font-family="DIN2014-Regular" font-size="21.6" fill="#000000" transform="matrix(1.00, 0.00, -0.00, -1.00, 645.6, 287.0)">N</text><text xml:space="preserve" font-family="DIN2014-Regular" font-size="21.6" fill="#000000" transform="matrix(1.00, 0.00, -0.00, -1.00, 661.8, 287.0)">G</text><text xml:space="preserve" font-family="DIN2014-Regular" font-size="21.6" fill="#000000" transform="matrix(1.00, 0.00, -0.00, -1.00, 677.3, 287.0)">U</text><text xml:space="preserve" font-family="DIN2014-Regular" font-size="21.6" fill="#000000" transform="matrix(1.00, 0.00, -0.00, -1.00, 694.0, 287.0)">A</text><text xml:space="preserve" font-family="DIN2014-Regular" font-size="21.6" fill="#000000" transform="matrix(1.00, 0.00, -0.00, -1.00, 708.9, 287.0)">G</text><text xml:space="preserve" font-family="DIN2014-Regular" font-size="21.6" fill="#000000" transform="matrix(1.00, 0.00, -0.00, -1.00, 724.4, 287.0)">E</text><text xml:space="preserve" font-family="DIN2014-Regular" font-size="27.0" fill="#000000" transform="matrix(1.00, 0.00, -0.00, -1.00, 593.1, 85.0)">“</text><text xml:space="preserve" font-family="DIN2014-Regular" font-size="21.6" fill="#000000" transform="matrix(1.00, 0.00, -0.00, -1.00, 605.9, 85.0)">A</text><text xml:space="preserve" font-family="DIN2014-Regular" font-size="27.0" fill="#000000" transform="matrix(1.00, 0.00, -0.00, -1.00, 620.9, 85.0)"> </text><text xml:space="preserve" font-family="DIN2014-Regular" font-size="21.6" fill="#000000" transform="matrix(1.00, 0.00, -0.00, -1.00, 630.1, 85.0)">N</text><text xml:space="preserve" font-family="DIN2014-Regular" font-size="21.6" fill="#000000" transform="matrix(1.00, 0.00, -0.00, -1.00, 646.3, 85.0)">E</text><text xml:space="preserve" font-family="DIN2014-Regular" font-size="21.6" fill="#000000" transform="matrix(1.00, 0.00, -0.00, -1.00, 660.4, 85.0)">W</text><text xml:space="preserve" font-family="DIN2014-Regular" font-size="27.0" fill="#000000" transform="matrix(1.00, 0.00, -0.00, -1.00, 681.0, 85.0)"> </text><text xml:space="preserve" font-family="DIN2014-Regular" font-size="21.6" fill="#000000" transform="matrix(1.00, 0.00, -0.00, -1.00, 690.2, 85.0)">W</text><text xml:space="preserve" font-family="DIN2014-Regular" font-size="21.6" fill="#000000" transform="matrix(1.00, 0.00, -0.00, -1.00, 710.8, 85.0)">O</text><text xml:space="preserve" font-family="DIN2014-Regular" font-size="21.6" fill="#000000" transform="matrix(1.00, 0.00, -0.00, -1.00, 726.2, 85.0)">R</text><text xml:space="preserve" font-family="DIN2014-Regular" font-size="21.6" fill="#000000" transform="matrix(1.00, 0.00, -0.00, -1.00, 741.7, 85.0)">L</text><text xml:space="preserve" font-family="DIN2014-Regular" font-size="21.6" fill="#000000" transform="matrix(1.00, 0.00, -0.00, -1.00, 754.9, 85.0)">D</text><text xml:space="preserve" font-family="DIN2014-Regular" font-size="27.0" fill="#000000" transform="matrix(1.00, 0.00, -0.00, -1.00, 770.4, 85.0)"> </text><text xml:space="preserve" font-family="DIN2014-Regular" font-size="21.6" fill="#000000" transform="matrix(1.00, 0.00, -0.00, -1.00, 779.6, 85.0)">I</text><text xml:space="preserve" font-family="DIN2014-Regular" font-size="21.6" fill="#000000" transform="matrix(1.00, 0.00, -0.00, -1.00, 788.0, 85.0)">S</text><text xml:space="preserve" font-family="DIN2014-Regular" font-size="27.0" fill="#000000" transform="matrix(1.00, 0.00, -0.00, -1.00, 802.8, 85.0)"> </text><text xml:space="preserve" font-family="DIN2014-Regular" font-size="21.6" fill="#000000" transform="matrix(1.00, 0.00, -0.00, -1.00, 812.0, 85.0)">C</text><text xml:space="preserve" font-family="DIN2014-Regular" font-size="21.6" fill="#000000" transform="matrix(1.00, 0.00, -0.00, -1.00, 826.9, 85.0)">O</text><text xml:space="preserve" font-family="DIN2014-Regular" font-size="21.6" fill="#000000" transform="matrix(1.00, 0.00, -0.00, -1.00, 842.3, 85.0)">M</text><text xml:space="preserve" font-family="DIN2014-Regular" font-size="21.6" fill="#000000" transform="matrix(1.00, 0.00, -0.00, -1.00, 860.9, 85.0)">I</text><text xml:space="preserve" font-family="DIN2014-Regular" font-size="21.6" fill="#000000" transform="matrix(1.00, 0.00, -0.00, -1.00, 869.3, 85.0)">N</text><text xml:space="preserve" font-family="DIN2014-Regular" font-size="21.6" fill="#000000" transform="matrix(1.00, 0.00, -0.00, -1.00, 885.5, 85.0)">G</text><text xml:space="preserve" font-family="DIN2014-Regular" font-size="27.0" fill="#000000" transform="matrix(1.00, 0.00, -0.00, -1.00, 901.0, 85.0)">.</text><text xml:space="preserve" font-family="DIN2014-Regular" font-size="27.0" fill="#000000" transform="matrix(1.00, 0.00, -0.00, -1.00, 909.0, 85.0)">”</text></g></svg>