<?xml version="1.0" encoding="UTF-8" standalone="no"?><svg xmlns="http://www.w3.org/2000/svg" xmlns:xlink="http://www.w3.org/1999/xlink" clip-rule="evenodd" stroke-miterlimit="4.00" viewBox="0 0 1024 768"><desc>SVG generated by Keynote</desc><defs></defs><g transform="matrix(1.00, 0.00, -0.00, -1.00, 0.0, 768.0)"><path d="M 0.0 768.0 L 1024.0 768.0 L 1024.0 0.0 L 0.0 0.0 Z M 0.0 768.0 " fill="#FEFFFF"></path><text xml:space="preserve" font-family="DIN2014-Regular" font-size="21.6" fill="#000000" transform="matrix(1.00, 0.00, -0.00, -1.00, 104.0, 474.0)">T</text><text xml:space="preserve" font-family="DIN2014-Regular" font-size="21.6" fill="#000000" transform="matrix(1.00, 0.00, -0.00, -1.00, 117.6, 474.0)">Y</text><text xml:space="preserve" font-family="DIN2014-Regular" font-size="21.6" fill="#000000" transform="matrix(1.00, 0.00, -0.00, -1.00, 132.0, 474.0)">P</text><text xml:space="preserve" font-family="DIN2014-Regular" font-size="21.6" fill="#000000" transform="matrix(1.00, 0.00, -0.00, -1.00, 147.1, 474.0)">O</text><text xml:space="preserve" font-family="DIN2014-Regular" font-size="21.6" fill="#000000" transform="matrix(1.00, 0.00, -0.00, -1.00, 162.5, 474.0)">G</text><text xml:space="preserve" font-family="DIN2014-Regular" font-size="21.6" fill="#000000" transform="matrix(1.00, 0.00, -0.00, -1.00, 178.0, 474.0)">R</text><text xml:space="preserve" font-family="DIN2014-Regular" font-size="21.6" fill="#000000" transform="matrix(1.00, 0.00, -0.00, -1.00, 193.5, 474.0)">A</text><text xml:space="preserve" font-family="DIN2014-Regular" font-size="21.6" fill="#000000" transform="matrix(1.00, 0.00, -0.00, -1.00, 208.4, 474.0)">P</text><text xml:space="preserve" font-family="DIN2014-Regular" font-size="21.6" fill="#000000" transform="matrix(1.00, 0.00, -0.00, -1.00, 223.6, 474.0)">H</text><text xml:space="preserve" font-family="DIN2014-Regular" font-size="21.6" fill="#000000" transform="matrix(1.00, 0.00, -0.00, -1.00, 239.8, 474.0)">Y</text><text xml:space="preserve" font-family="DIN2014-Regular" font-size="27.0" fill="#000000" transform="matrix(1.00, 0.00, -0.00, -1.00, 254.2, 474.0)"> </text><text xml:space="preserve" font-family="DIN2014-Regular" font-size="21.6" fill="#000000" transform="matrix(1.00, 0.00, -0.00, -1.00, 263.4, 474.0)">M</text><text xml:space="preserve" font-family="DIN2014-Regular" font-size="21.6" fill="#000000" transform="matrix(1.00, 0.00, -0.00, -1.00, 282.1, 474.0)">U</text><text xml:space="preserve" font-family="DIN2014-Regular" font-size="21.6" fill="#000000" transform="matrix(1.00, 0.00, -0.00, -1.00, 299.0, 474.0)">S</text><text xml:space="preserve" font-family="DIN2014-Regular" font-size="21.6" fill="#000000" transform="matrix(1.00, 0.00, -0.00, -1.00, 313.4, 474.0)">T</text><text xml:space="preserve" font-family="DIN2014-Regular" font-size="27.0" fill="#000000" transform="matrix(1.00, 0.00, -0.00, -1.00, 327.0, 474.0)">:</text><text xml:space="preserve" font-family="DIN2014-Regular" font-size="27.0" fill="#000000" transform="matrix(1.00, 0.00, -0.00, -1.00, 335.2, 474.0)"> </text><text xml:space="preserve" font-family="DIN2014-Regular" font-size="21.6" fill="#000000" transform="matrix(1.00, 0.00, -0.00, -1.00, 440.0, 409.0)">A</text><text xml:space="preserve" font-family="DIN2014-Regular" font-size="21.6" fill="#000000" transform="matrix(1.00, 0.00, -0.00, -1.00, 455.0, 409.0)">C</text><text xml:space="preserve" font-family="DIN2014-Regular" font-size="21.6" fill="#000000" transform="matrix(1.00, 0.00, -0.00, -1.00, 469.9, 409.0)">C</text><text xml:space="preserve" font-family="DIN2014-Regular" font-size="21.6" fill="#000000" transform="matrix(1.00, 0.00, -0.00, -1.00, 484.8, 409.0)">E</text><text xml:space="preserve" font-family="DIN2014-Regular" font-size="21.6" fill="#000000" transform="matrix(1.00, 0.00, -0.00, -1.00, 498.9, 409.0)">N</text><text xml:space="preserve" font-family="DIN2014-Regular" font-size="21.6" fill="#000000" transform="matrix(1.00, 0.00, -0.00, -1.00, 515.1, 409.0)">T</text><text xml:space="preserve" font-family="DIN2014-Regular" font-size="21.6" fill="#000000" transform="matrix(1.00, 0.00, -0.00, -1.00, 528.7, 409.0)">U</text><text xml:space="preserve" font-family="DIN2014-Regular" font-size="21.6" fill="#000000" transform="matrix(1.00, 0.00, -0.00, -1.00, 545.4, 409.0)">A</text><text xml:space="preserve" font-family="DIN2014-Regular" font-size="21.6" fill="#000000" transform="matrix(1.00, 0.00, -0.00, -1.00, 559.7, 409.0)">T</text><text xml:space="preserve" font-family="DIN2014-Regular" font-size="21.6" fill="#000000" transform="matrix(1.00, 0.00, -0.00, -1.00, 573.3, 409.0)">E</text><text xml:space="preserve" font-family="DIN2014-Regular" font-size="27.0" fill="#000000" transform="matrix(1.00, 0.00, -0.00, -1.00, 587.4, 409.0)"> </text><text xml:space="preserve" font-family="DIN2014-Regular" font-size="21.6" fill="#000000" transform="matrix(1.00, 0.00, -0.00, -1.00, 448.0, 376.0)">E</text><text xml:space="preserve" font-family="DIN2014-Regular" font-size="21.6" fill="#000000" transform="matrix(1.00, 0.00, -0.00, -1.00, 462.1, 376.0)">M</text><text xml:space="preserve" font-family="DIN2014-Regular" font-size="21.6" fill="#000000" transform="matrix(1.00, 0.00, -0.00, -1.00, 480.8, 376.0)">P</text><text xml:space="preserve" font-family="DIN2014-Regular" font-size="21.6" fill="#000000" transform="matrix(1.00, 0.00, -0.00, -1.00, 495.9, 376.0)">H</text><text xml:space="preserve" font-family="DIN2014-Regular" font-size="21.6" fill="#000000" transform="matrix(1.00, 0.00, -0.00, -1.00, 512.1, 376.0)">A</text><text xml:space="preserve" font-family="DIN2014-Regular" font-size="21.6" fill="#000000" transform="matrix(1.00, 0.00, -0.00, -1.00, 527.1, 376.0)">S</text><text xml:space="preserve" font-family="DIN2014-Regular" font-size="21.6" fill="#000000" transform="matrix(1.00, 0.00, -0.00, -1.00, 541.9, 376.0)">I</text><text xml:space="preserve" font-family="DIN2014-Regular" font-size="21.6" fill="#000000" transform="matrix(1.00, 0.00, -0.00, -1.00, 550.2, 376.0)">Z</text><text xml:space="preserve" font-family="DIN2014-Regular" font-size="21.6" fill="#000000" transform="matrix(1.00, 0.00, -0.00, -1.00, 563.9, 376.0)">E</text><text xml:space="preserve" font-family="DIN2014-Regular" font-size="27.0" fill="#000000" transform="matrix(1.00, 0.00, -0.00, -1.00, 578.0, 376.0)"> </text><text xml:space="preserve" font-family="DIN2014-Regular" font-size="21.6" fill="#000000" transform="matrix(1.00, 0.00, -0.00, -1.00, 448.0, 342.0)">U</text><text xml:space="preserve" font-family="DIN2014-Regular" font-size="21.6" fill="#000000" transform="matrix(1.00, 0.00, -0.00, -1.00, 464.9, 342.0)">N</text><text xml:space="preserve" font-family="DIN2014-Regular" font-size="21.6" fill="#000000" transform="matrix(1.00, 0.00, -0.00, -1.00, 481.1, 342.0)">D</text><text xml:space="preserve" font-family="DIN2014-Regular" font-size="21.6" fill="#000000" transform="matrix(1.00, 0.00, -0.00, -1.00, 496.6, 342.0)">E</text><text xml:space="preserve" font-family="DIN2014-Regular" font-size="21.6" fill="#000000" transform="matrix(1.00, 0.00, -0.00, -1.00, 510.7, 342.0)">R</text><text xml:space="preserve" font-family="DIN2014-Regular" font-size="21.6" fill="#000000" transform="matrix(1.00, 0.00, -0.00, -1.00, 526.2, 342.0)">L</text><text xml:space="preserve" font-family="DIN2014-Regular" font-size="21.6" fill="#000000" transform="matrix(1.00, 0.00, -0.00, -1.00, 539.5, 342.0)">I</text><text xml:space="preserve" font-family="DIN2014-Regular" font-size="21.6" fill="#000000" transform="matrix(1.00, 0.00, -0.00, -1.00, 547.8, 342.0)">N</text><text xml:space="preserve" font-family="DIN2014-Regular" font-size="21.6" fill="#000000" transform="matrix(1.00, 0.00, -0.00, -1.00, 564.1, 342.0)">E</text><text xml:space="preserve" font-family="DIN2014-Regular" font-size="27.0" fill="#000000" transform="matrix(1.00, 0.00, -0.00, -1.00, 578.2, 342.0)"> </text><text xml:space="preserve" font-family="DIN2014-Regular" font-size="21.6" fill="#000000" transform="matrix(1.00, 0.00, -0.00, -1.00, 443.0, 309.0)">A</text><text xml:space="preserve" font-family="DIN2014-Regular" font-size="21.6" fill="#000000" transform="matrix(1.00, 0.00, -0.00, -1.00, 458.0, 309.0)">B</text><text xml:space="preserve" font-family="DIN2014-Regular" font-size="21.6" fill="#000000" transform="matrix(1.00, 0.00, -0.00, -1.00, 473.3, 309.0)">B</text><text xml:space="preserve" font-family="DIN2014-Regular" font-size="21.6" fill="#000000" transform="matrix(1.00, 0.00, -0.00, -1.00, 488.6, 309.0)">R</text><text xml:space="preserve" font-family="DIN2014-Regular" font-size="21.6" fill="#000000" transform="matrix(1.00, 0.00, -0.00, -1.00, 504.0, 309.0)">E</text><text xml:space="preserve" font-family="DIN2014-Regular" font-size="21.6" fill="#000000" transform="matrix(1.00, 0.00, -0.00, -1.00, 518.2, 309.0)">V</text><text xml:space="preserve" font-family="DIN2014-Regular" font-size="21.6" fill="#000000" transform="matrix(1.00, 0.00, -0.00, -1.00, 533.6, 309.0)">I</text><text xml:space="preserve" font-family="DIN2014-Regular" font-size="21.6" fill="#000000" transform="matrix(1.00, 0.00, -0.00, -1.00, 542.0, 309.0)">A</text><text xml:space="preserve" font-family="DIN2014-Regular" font-size="21.6" fill="#000000" transform="matrix(1.00, 0.00, -0.00, -1.00, 556.3, 309.0)">T</text><text xml:space="preserve" font-family="DIN2014-Regular" font-size="21.6" fill="#000000" transform="matrix(1.00, 0.00, -0.00, -1.00, 569.8, 309.0)">E</text><text xml:space="preserve" font-family="DIN2014-Regular" font-size="27.0" fill="#000000" transform="matrix(1.00, 0.00, -0.00, -1.00, 584.0, 309.0)"> </text><text xml:space="preserve" font-family="DIN2014-Regular" font-size="21.6" fill="#000000" transform="matrix(1.00, 0.00, -0.00, -1.00, 445.0, 275.0)">I</text><text xml:space="preserve" font-family="DIN2014-Regular" font-size="21.6" fill="#000000" transform="matrix(1.00, 0.00, -0.00, -1.00, 453.4, 275.0)">L</text><text xml:space="preserve" font-family="DIN2014-Regular" font-size="21.6" fill="#000000" transform="matrix(1.00, 0.00, -0.00, -1.00, 466.6, 275.0)">L</text><text xml:space="preserve" font-family="DIN2014-Regular" font-size="21.6" fill="#000000" transform="matrix(1.00, 0.00, -0.00, -1.00, 479.9, 275.0)">U</text><text xml:space="preserve" font-family="DIN2014-Regular" font-size="21.6" fill="#000000" transform="matrix(1.00, 0.00, -0.00, -1.00, 496.8, 275.0)">S</text><text xml:space="preserve" font-family="DIN2014-Regular" font-size="21.6" fill="#000000" transform="matrix(1.00, 0.00, -0.00, -1.00, 511.2, 275.0)">T</text><text xml:space="preserve" font-family="DIN2014-Regular" font-size="21.6" fill="#000000" transform="matrix(1.00, 0.00, -0.00, -1.00, 524.8, 275.0)">R</text><text xml:space="preserve" font-family="DIN2014-Regular" font-size="21.6" fill="#000000" transform="matrix(1.00, 0.00, -0.00, -1.00, 540.3, 275.0)">A</text><text xml:space="preserve" font-family="DIN2014-Regular" font-size="21.6" fill="#000000" transform="matrix(1.00, 0.00, -0.00, -1.00, 554.6, 275.0)">T</text><text xml:space="preserve" font-family="DIN2014-Regular" font-size="21.6" fill="#000000" transform="matrix(1.00, 0.00, -0.00, -1.00, 568.2, 275.0)">E</text></g></svg>